<?xml version="1.0" encoding="UTF-8"?>
<svg id="svg3397" xmlns="http://www.w3.org/2000/svg" xmlns:svg="http://www.w3.org/2000/svg" version="1.1" viewBox="0 0 616 146.36">
  <!-- Generator: Adobe Illustrator 29.0.1, SVG Export Plug-In . SVG Version: 2.1.0 Build 192)  -->
  <path id="path2569" d="M104.5,46.16s-11.06-9.15-25.18-9.15c0,0-16.78,0-28.61,12.21,0,0-11.82,12.21-11.82,28.99,0,0,0,16.78,11.82,28.99,0,0,11.82,11.82,28.61,11.82,0,0,14.11,0,25.18-8.77l5.34,5.34s-13.35,11.06-30.52,11.06c0,0-19.84,0-33.95-14.5,0,0-14.11-14.11-14.11-33.95,0,0,0-19.84,14.11-33.95,0,0,14.11-14.5,33.95-14.5,0,0,17.17,0,30.52,10.68l-5.34,5.72"/>
  <path id="path2573" d="M143.02,64.08c-12.97,0-22.12,9.15-22.12,9.15-9.15,9.15-9.15,22.12-9.15,22.12,0,12.97,9.15,22.12,9.15,22.12,9.15,9.15,22.12,9.15,22.12,9.15,14.88,0,24.79-12.59,24.79-12.59v11.06h6.87v-59.12h-6.87v10.3c-9.54-12.21-24.79-12.21-24.79-12.21ZM143.02,70.95c9.92,0,17.17,6.87,17.17,6.87,7.25,7.25,7.25,17.55,7.25,17.55,0,9.92-7.25,17.17-7.25,17.17-7.25,7.25-17.17,7.25-17.17,7.25-10.3,0-17.17-7.25-17.17-7.25-7.25-7.25-7.25-17.17-7.25-17.17,0-10.3,7.25-17.55,7.25-17.55,6.87-6.87,17.17-6.87,17.17-6.87Z"/>
  <path id="path2575" d="M273.1,38.91s-4.2,0-4.2-4.2c0,0,0-4.58,4.2-4.58,0,0,4.58,0,4.58,4.58,0,0,0,4.2-4.58,4.2"/>
  <path id="path2577" d="M195.28,30.13v94.98h-7.25V30.13h7.25"/>
  <path id="path2579" d="M231.52,112.15l20.98-46.16h7.63l-28.61,62.94-29.37-62.94h8.01l21.36,46.16"/>
  <path id="path2581" d="M296.37,71.71s5.72-7.63,16.78-7.63c0,0,9.92,0,16.78,6.87,0,0,6.87,6.87,6.87,16.78v37.38h-6.87v-37.38s0-7.25-4.96-12.21c0,0-4.58-4.96-11.82-4.96,0,0-6.87,0-11.82,4.58,0,0-4.96,4.96-4.96,12.59v37.38h-6.87v-59.12h6.87v5.72"/>
  <path id="path2583" d="M276.53,65.99v59.12h-6.87v-59.12h6.87"/>
  <path id="path2585" d="M427.97,30.52l-37.76,40.81,37.38,53.78h-8.77l-33.57-48.44-6.87,7.25v41.2h-6.87V30.13h6.87v43.1l39.67-42.72h9.92"/>
  <path id="path2587" d="M445.51,30.13v94.98h-7.25V30.13h7.25"/>
  <path id="path2589" d="M487.85,64.08c-12.97,0-22.12,9.15-22.12,9.15-8.77,8.77-8.77,22.12-8.77,22.12,0,12.97,8.77,21.74,8.77,21.74,9.15,9.15,22.12,9.15,22.12,9.15,19.84,0,28.23-17.55,28.23-17.55l-6.1-2.67c-6.87,13.35-22.12,13.35-22.12,13.35-9.92,0-16.78-6.87-16.78-6.87-7.25-6.87-7.25-16.78-7.25-16.78h55.31v-.38c0-13.35-9.15-22.12-9.15-22.12-9.15-9.15-22.12-9.15-22.12-9.15ZM487.85,70.57c8.39,0,14.88,5.34,14.88,5.34,6.48,4.96,8.77,12.59,8.77,12.59h-46.92c2.29-7.63,8.39-12.59,8.39-12.59,6.87-5.34,14.88-5.34,14.88-5.34Z"/>
  <path id="path2593" d="M529.81,34.71s0-4.58,4.2-4.58c0,0,4.2,0,4.2,4.58,0,0,0,4.2-4.2,4.2,0,0-4.2,0-4.2-4.2"/>
  <path id="path2595" d="M558.04,65.99v5.72s5.34-7.63,16.78-7.63c0,0,9.92,0,16.78,6.87,0,0,6.87,6.87,6.87,16.78v37.38h-7.25v-37.38s0-7.25-4.58-12.21c0,0-4.96-4.96-11.82-4.96,0,0-7.25,0-11.82,4.58,0,0-4.96,4.96-4.96,12.59v37.38h-7.25v-59.12h7.25"/>
  <path id="path2597" d="M537.44,65.99v59.12h-6.87v-59.12h6.87"/>
</svg>