<?xml version="1.0" encoding="UTF-8"?>
<svg id="Capa_1" xmlns="http://www.w3.org/2000/svg" version="1.1" viewBox="0 0 604.6 547.5">
  <!-- Generator: Adobe Illustrator 29.0.1, SVG Export Plug-In . SVG Version: 2.1.0 Build 192)  -->
  <defs>
    <style>
      .st0 {
        fill-rule: evenodd;
      }
    </style>
  </defs>
  <path class="st0" d="M502.1,358.6l23.3-1.1c7-.3,15.1-2.5,21.6-5.2.2,0,.5,0,.7.2.2.2.2.5,0,.7l-5.6,7.8c-3.1,4.3-6.3,6.7-11.8,7l-20.3,1.1s0,0,0,0l-17.6-.8c-.2,0-.4-.1-.5-.3,0-.2-.1-.4,0-.5,3.7-7.2,6.4-17.1-1.4-22.7-5.8-4.2-12.8-1.6-16.5,4-1.2,1.9-2.3,3.8-3.2,5.8l37.7,27.1c3.4,2.5,9.4,7.6,13.7,4.6.2-.1.5-.1.7,0l.3.2c.3.2.3.5.1.8l-11.7,16.2c-.2.3-.5.3-.8.1l-.3-.2c-.2-.1-.3-.4-.2-.6,1.5-5.1-5.3-9-8.7-11.5l-32-23.1c-3.5-2.5-9.3-7.7-13.8-4.7-.2.1-.5.1-.6,0l-.3-.2c-.3-.2-.3-.5-.1-.8l14.6-20.2c4.7-6.5,12-12.2,20.4-10.7,2.4.4,4.7,1.4,6.7,2.9,2,1.4,3.6,3.3,4.8,5.4,3.1,5.6,3.2,12.8,1,18.7M470.7,433l10.1-8.1c5.3-4.3,8.9-10.8,9.5-17.6,0-.1,0-.3.2-.4l.2-.2c.1-.1.3-.2.5-.1.2,0,.3.1.4.3l6.2,13.2c.1.2,0,.5-.1.6l-31.6,30.5c-.2.2-.6.2-.8,0l-.2-.2c-.2-.2-.2-.4,0-.6,2.4-4.8-3.6-10-6.5-13l-27.6-28.6c-3-3.1-7.9-9.2-12.9-7-.2,0-.5,0-.6-.1l-.2-.2c-.2-.2-.2-.6,0-.8l24.3-23.4c1-1,2.6-2.2,3.1-3.6,0,0,0-.2.1-.2l.2-.2c.2-.2.6-.2.8,0l8.6,8.9c.2.2.2.6,0,.8l-.2.2c-.1.1-.3.2-.4.2-4.8-.5-8.1,2.3-11.4,5.4-2.4,2.3-4.9,4.8-6.9,7.5l12.9,13.3,8.6-8.3c1-.9,2.3-2.2,2.8-3.4,0,0,0-.2.1-.2l.2-.2c.2-.2.6-.2.8,0l7.7,8c.2.2.2.6,0,.8l-.2.2c-.2.1-.4.2-.6.1-3.1-1-6.2,2.3-8.2,4.3l-5.2,5,16.6,17.2ZM411.7,472.7l12.9-5.3c6.5-2.6,10.9-7.4,13.7-13.8,0-.1.1-.2.3-.3h.3c.2-.2.4-.2.5-.1.2,0,.3.3.3.4l1.2,15.1c0,.2-.1.5-.3.6l-39.2,19.1c-.3.1-.6,0-.8-.3v-.3c-.2-.2-.2-.5,0-.6,3.8-3.8-.3-10.7-2.2-14.5l-17.5-36c-1.9-3.9-4.7-11.3-10.1-10.8-.2,0-.5,0-.6-.3v-.3c-.3-.3-.2-.6.1-.8l18.2-8.9c.3-.1.6,0,.8.3v.3c.2.2.2.5,0,.6-3.7,3.9.4,10.7,2.3,14.6l20.1,41.1ZM366.3,441c-6.4-2.3-13.4-3-20-1.5-5.7,1.3-10.8,4.3-14.2,9-4.5,6.1-5.3,13.8-3.6,21,3.4,14.8,16.4,25.7,31.9,22.2,7.5-1.7,14.5-6.1,20.1-11.3,0,0,.2-.1.3-.1h.3c.2-.1.4,0,.5,0,.1.1.2.3.2.5l-2.5,13.1c0,.1,0,.3-.2.3-4.4,3.4-9.6,5.5-15,6.7-11.8,2.7-24.8,2.2-34.8-5.4-7.1-5.3-11.2-13.1-13.2-21.7-2.2-9.5-1.2-19.4,4-27.8,5.5-8.8,14.5-14.1,24.4-16.4,6.3-1.4,12.9-1.8,19.4-1.7.3,0,.5.2.5.4l2.7,11.8c0,.2,0,.4-.2.5-.2.1-.4.2-.6.1ZM254.3,431.1c.2,1.1.6,1.6,1.2,2.5,0,0,0,0,0,0l1.2,2.3,32.7,51.6,4-38.5c.6-5.6,1.2-9.8-3.9-13.4-.2-.1-.3-.3-.2-.5v-.3c0-.3.3-.5.7-.5l18.6,2c.3,0,.5.3.5.6v.3c0,.2-.2.4-.4.5-5.7,2.5-6,6.7-6.6,12.3l-6.2,59.4c0,.2-.1.3-.3.4-.2,0-.3.1-.5,0-7.3-3.3-10.3-7.3-14.4-13.9l-30.6-48.5-4.1,39.3c-.6,5.6-1.2,9.8,3.9,13.5.2.1.2.3.2.5v.3c0,.3-.3.5-.7.5l-18.7-2c-.3,0-.5-.3-.5-.6v-.3c0-.2.2-.4.4-.5,5.7-2.6,6.1-6.7,6.7-12.4l4.4-42.2c.6-5.6,1.1-9.8-3.9-13.4-.2-.1-.3-.3-.2-.5v-.3c0-.3.3-.5.7-.5l15.5,1.6c.3,0,.5.3.5.6h0ZM169.6,421.9c-11.2,9.9-15.2,27.4-4.7,39.4,10.4,11.9,25.7,11.8,37.3,1.6,11.4-10,16.1-26.9,5.3-39.2-10.6-12.1-26-12.2-37.9-1.8ZM212.5,471.4c-16.5,14.4-40.4,11.3-54.5-4.8-14.1-16.1-14.3-39.6,2.2-54.1,4.4-3.9,9.7-6.5,15.4-7.8,14.6-3.3,29.5,2.4,38.9,13.8,5,5.7,8.5,12.5,9.6,20.1,1.1,6.9.2,13.9-2.5,20.3-2.1,4.8-5.2,9.1-9.2,12.6ZM155.3,391.6l-36.5,37.2c-3.3,3.4-5.3,5.4-5,10.4,0,.2,0,.4-.2.5l-.3.2c-.2.2-.6.1-.8,0l-12.5-16c-.2-.2-.1-.6,0-.8l.3-.2c.2-.2.5-.2.7,0,3,2.1,5.7.5,8.2-1.4l34.7-34.3-59.9,17.8c-.2,0-.4,0-.5,0-.1-.1-.2-.3-.2-.4,0-6.6,1.3-9.8,4.4-15.4l24.1-43.1-37.6,22c-2.5,1.5-6.8,3.7-8,6.5-.5,1.2-.5,2.5-.2,3.7,0,.2,0,.4-.2.6l-.3.2c-.2.2-.6.1-.8,0l-10.5-13.5c-.2-.2-.1-.6,0-.8l.2-.2c.1-.1.3-.1.5-.1,5.6,1.1,10.2-1.7,14.9-4.3l38.5-22.4c1.4-.8,2.9-1.5,4-2.7,1.4-1.5,1.7-3.3,1.4-5.3,0-.2,0-.4.2-.5l.3-.2c.2-.2.6-.1.8,0l11.3,14.5c.2.2.1.6,0,.8h0c-1.2,1-1.9,2.6-2.7,4l-23.8,42.9,44.6-13.2c2.1-.6,4.2-1.3,5.9-2.7h0c.2-.3.6-.2.8,0l11.2,14.4c.2.2.1.6,0,.8l-.3.2c-.2.2-.5.2-.7,0-1.9-1.4-4.6,0-6.2,1.2Z"/>
  <path class="st0" d="M406.7,233.3c2.9,1.8,6,4.7,8,7.2,4.8,6,6.2,12.9,2.9,20-.4.9-.8,1.8-1.3,2.6-.2.4-.6,1.1-1.2,1-.6,0-.8-.8-1.1-1.2-.3-.7-.7-1.3-1.1-1.8-2.1-2.4-5-3.3-8.1-3.1,0,0,0,0,0,0-.2,0-.9,0-1,.2,0,.2.7.9.8,1,2,1.8,3.6,5.4,4.3,8,1.3,4.8,1,9.7-.7,14.4,0,0,0,0,0,0-.8,1.8-2.9,2.5-4.8,2.3-1.7-.2-3.3-.5-5-.7-2.9-.3-5.9-.4-8.8-.1-8.2.7-14.7,3.4-20.6,9.3-.2.2-.4.2-.6.1-.2,0-.4-.2-.4-.5l-1.6-11.1c0-.2,0-.4.2-.5,1.2-1.2,2-2.1,3.4-3,3.5-2.3,7.5-4.1,11.6-5.1,3.5-.9,7.3-1.5,10.8-1.3,1,0,2.6.2,3.5.6.3,0,.8,0,1,0,.8-.4.5-1.9.3-2.5-1-3.9-2.6-6.4-6-8.8-1-.7-2.1-1.4-3.1-2.1-.7-.5-1.5-1.1-1.6-2-.3-1.8,2.9-3.9,4.2-4.8,1.7-1.2,4.3-2,6.2-2.5,3.2-.7,6.6-.8,9.9-.2-.5-1.4-1.6-2.9-2.6-3.8-3.9-3.6-10-4.2-15-3.8-.2,0-.3,0-.4-.2-.1-.1-.2-.3-.2-.4,0-2.5,1.3-5.8,2.5-7.8,3.5-6.2,9.6-10.5,16.1-13.2-.8-2.9-2.6-6.2-4.2-8.6-4.3-6.3-10.4-10.7-17.7-12.7-5.7-1.6-11.5-1.4-16.7,1.5-9.6,5.3-13.2,17.3-13.3,27.5,0,1.6,0,3.2.2,4.8.2,2.4.4,4.8.6,7.1.7,6.6,1.5,13.2,2.3,19.8,2.3,17.6,4.8,35.1,7.4,52.6,2.7,18.5,5.6,36.9,8.4,55.4,1,6.6,2,13.2,3,19.8.5,3.5,1.1,7,1.5,10.5,0,.2,0,.3-.1.4-.1.1-.3.2-.4.2h-43.6c-.3,0-.5-.2-.6-.5l-1.6-10.7c0-.2,0-.3.1-.5.1-.1.3-.2.4-.2h32.9l-20.3-130.9c-2.2-14.2-3.9-29.7.6-43.7,4.8-15,15.7-25.7,32.1-26.5,4.6-.2,9.1.7,13.3,2.5,4.7,2,8.9,5,12.6,8.5,9.1,8.7,15,20.6,18.1,32.6,0,.2,0,.4-.1.5-.1.1-.3.2-.5.2-1.7-.4-4-.5-5.7-.3-3.6.3-7,1.6-9.5,4.3M307.6,272.4c.3-1.5.5-3,.8-4.5.1-.5.3-1.9,1-1.9.8,0,.9,1.7,1,2.3.3,1.7.5,3.5.8,5.2,6.4,41.6,11.9,82.3,18.3,123.8,0,.2,0,.3-.1.5-.1.1-.3.2-.4.2h-10.6c-.3,0-.5-.2-.6-.5l-14.1-102.6c0,0,0-.1,0-.2l3.8-22.2ZM197.2,187.6c1.7,1.2,3.4,2.6,4.9,3.9,3.6,3.2,7.1,6.9,9.7,10.9,5.5,8.4,9.4,16.2,11.6,26,2.2,9.7,2.1,19.8,4.1,29.6,1.7,8.4,4.4,12.9,10.9,18.2.2.1.2.3.2.5l-1.6,12.2c0,.2-.2.4-.3.4-.2,0-.4,0-.6,0-6.9-5.2-12.1-10.5-15.9-18.4-2.5-5.2-3.8-10.8-4.9-16.5-1.5-7.8-2.6-15.6-4.1-23.3-.8-4.4-1.7-8.6-3.5-12.7-2.3-5.4-5.6-10.1-9.8-14.3-3.9-3.9-8-7.6-12.3-11-1.6-1.2-3.2-2.5-4.9-3.6-.2,0-.2-.3-.3-.4,0-.2,0-.3.2-.5,1.9-1.7,3.8-3.6,5.5-5.5,3.8-4,7.3-8.4,10.3-13,1.3-2,2.4-4.1,3.4-6.2,1.5-3.4,2.9-6.9,4.3-10.4.9-2.1,1.8-4.3,3-6.2,1-1.6,2.3-2.9,3.6-4.2,4.5-4.1,9.2-6.9,15.2-7.7.2,0,.5,0,.6.3.1.2,0,.4,0,.6-1.3,1.7-2.6,3.7-3.6,5.6-1.2,2.2-2.1,4.5-2.1,7,1.5-.9,3.3-1.7,4.8-2.2,4.5-1.4,9-1,13.1,1.3.3.1.4.4.3.7-5.1,13.6-7.7,28.3-3,42.4,4.7,14.1,15.7,24.7,28,32.3.2.1.3.3.3.6l-25.7,162.2h27.2c.2,0,.3,0,.4.2.1.1.2.3.1.5l-1.8,10.7c0,.3-.3.5-.6.5h-38.7c-.2,0-.3,0-.4-.2-.1-.1-.2-.3-.1-.5l27.7-168.3c-3.2-2-6.5-4.7-9.3-7.2-6.2-5.7-11.7-12.7-15.1-20.5-3-7-4.9-14.6-5.6-22.2-.2-2.9-.4-6.4,0-9.3.3-2.8-2.2-5.2-4.8-5.6-3.5-.5-5.3,2.3-6.9,5-1.2,2-2.4,3.9-3.7,5.8-3,4.3-6.4,8.6-9.7,12.6ZM324.4,130.2l-43.8,267.2c0,.3-.3.5-.6.5h-10c-.2,0-.3,0-.4-.2-.1-.1-.2-.3-.1-.5,18.3-110.5,34.9-221.3,54.9-331.5.4-2.1.7-4.3,1.1-6.4.1-.6.3-2.7,1.1-2.7.8,0,.9,1.8,1,2.4.3,2,.5,4,.8,6,5.6,43.9,12.6,87,19,130.8,0,.2,0,.3-.1.4-1.9,2.5-3.4,5.3-4.5,8.3-.5,1.3-1,2.7-1.5,4-.2.6-.6,1.8-1.4,1.7-.8,0-.9-1.3-1-1.9-.3-1.4-.5-2.9-.7-4.3-3.9-24.8-7.6-49.2-11.5-73.9-1.4-8.9-1-8.5-2.4.2ZM279.1,129.6l-13.6,87.3c0,.2-.1.3-.3.4-.2,0-.4,0-.5,0l-9-5.9c-.2-.1-.3-.3-.3-.6l24.1-148.2c.2-1.4.5-2.9.8-4.3.1-.6.4-1.7,1.1-1.7.8,0,1,1.5,1.1,2.1.2,1.3.4,2.7.6,4,1.1,7.1,2.2,14.3,3.3,21.4,2,12.9,3.9,25.9,5.9,38.8,2.7,17.9,5.1,35.2,7.9,53,.2,1.2.4,2.4.6,3.7,0,0,0,.1,0,.2-.2,1-.3,2-.5,3-.9,5.3-1.8,10.7-2.8,16-.2,1-.3,2.1-.5,3.1-.2,1.4-.5,2.8-.8,4.2-.1.6-.3,1.8-1.1,1.8-.8,0-.9-1.3-1-1.8-.3-1.3-.5-2.7-.7-4-.2-1.1-.3-2.1-.5-3.2-3.7-23.2-7-46-10.7-69.2-1.9-11.8-1.2-12-3-.2Z"/>
  <path d="M24,345.1c15.2,35.5,37.1,67.4,64,94.3,54.6,54.6,129.9,88.3,213.2,88.3s158.6-33.7,213.2-88.3c27-27,48.8-59,64.1-94.5-29.7-21.9-59.5-43.6-88.8-65.9h0c5.9-18.8,9.1-38.8,9.1-59.5,0-54.6-22.1-104-57.9-139.7s-85.2-57.9-139.7-57.9-104,22.1-139.7,57.9-57.9,85.2-57.9,139.7,3.3,41.2,9.3,60.2l-88.8,65.4ZM0,338.2l90-66.5c-4.1-16.7-6.3-34.3-6.3-52.3,0-60,24.3-114.4,63.7-153.7C186.7,26.3,241,2,301.1,2s114.4,24.3,153.7,63.7c39.3,39.3,63.7,93.7,63.7,153.7s-2.1,35.2-6.2,51.8l90.3,66.5c-4.1,10.1-7.3,18.4-12,27.9-16.1,32.1-36.9,62.4-62.2,87.8-58.1,58.1-138.5,94.1-227.2,94.1s-169.1-36-227.2-94.1c-27.6-27.6-50.2-60.2-66.3-96.2h0s0,0,0,0c-2.6-5.8-5-11.6-7.2-17.6h.1c0,0-.5-1.3-.5-1.3Z"/>
</svg>