<?xml version="1.0" encoding="UTF-8"?>
<svg id="mobile" xmlns="http://www.w3.org/2000/svg" version="1.1" viewBox="0 0 86.62 37.54">
  <!-- Generator: Adobe Illustrator 29.0.1, SVG Export Plug-In . SVG Version: 2.1.0 Build 192)  -->
  <ellipse cx="43.31" cy="18.77" rx="43.31" ry="14.07" fill="#fff"/>
  <path d="M52.81,20.05h2.29l-1.16-4.3-1.13,4.3ZM31.24,15.66h-.58v6.25h.57c.67.1,1.34-.21,1.71-.77.75-1.48.75-3.23,0-4.72-.37-.56-1.04-.86-1.7-.76ZM15.21,15.46c-1.62,0-1.9,2.24-1.9,3.36s.49,3.22,1.9,3.22,1.9-2.12,1.91-3.22-.29-3.35-1.91-3.36Z"/>
  <path d="M43.31,4.7C19.39,4.7,0,11,0,18.77s19.39,14.07,43.31,14.07,43.31-6.3,43.31-14.07-19.39-14.06-43.31-14.06h0ZM15.2,24.03c-2.68,0-4.35-2.21-4.35-5.21v-.02c0-3.16,1.66-5.29,4.36-5.29s4.36,2.13,4.36,5.3c0,3-1.68,5.22-4.36,5.22h-.01ZM26.89,23.9h-6.04v-10.21h2.34v8.22h3.7v1.99ZM36.02,18.78v.07c.05,1.42-.4,2.81-1.29,3.92-.96,1.1-1.98,1.12-3.26,1.12h-3.27v-10.21h3.27c1.28,0,2.31,0,3.26,1.1.89,1.12,1.35,2.52,1.29,3.95v.05ZM48.1,23.9h-2.35l-3.25-5.84v5.84h-2.35v-10.21h2.35l3.25,5.92v-5.92h2.34v10.21h0ZM56.13,23.9l-.53-1.99h-3.28l-.52,1.99h-2.38l2.74-10.21h3.56l2.75,10.21h-2.34ZM63.65,23.9h-3.11l-2.62-10.21h2.59l1.59,7.12,1.6-7.12h2.59l-2.63,10.21h0ZM72.71,20.64v3.26h-2.61v-3.26l-3.05-6.95h2.57l1.78,4.46,1.79-4.46h2.57l-3.06,6.95h.01Z"/>
</svg>