<?xml version="1.0" encoding="UTF-8"?>
<svg id="Capa_1" xmlns="http://www.w3.org/2000/svg" xmlns:svg="http://www.w3.org/2000/svg" version="1.1" viewBox="0 0 566.9 31.5">
  <!-- Generator: Adobe Illustrator 29.0.1, SVG Export Plug-In . SVG Version: 2.1.0 Build 192)  -->
  <path d="M268.8,23.4v-15.4h23.6v15.4h-23.6Z" fill="#fff" stroke="#000" stroke-miterlimit="10"/>
  <path d="M245.2,23.4v-15.3h23.6v15.4h-23.6v-.1Z" stroke="#000" stroke-miterlimit="10"/>
  <path d="M481.9,0c-9.4,0-16.5,6.9-16.5,15.9s6.9,15.6,16.4,15.6c4.3,0,7.6-.7,11.7-2.5h0v-13h-10.3v4h5.9v6.3c-2.1.7-4.3,1.2-6.7,1.2-7.3,0-12.4-4.8-12.4-11.7s5.2-11.8,11.8-11.8c3.7,0,7.4,1.1,11,3V2.6c-4.8-2-7.3-2.6-10.9-2.6Z"/>
  <polygon points="0 .4 0 4.4 10.6 4.4 10.6 31.2 15 31.2 15 4.4 25.6 4.4 25.6 .4 0 .4"/>
  <polygon points="95.5 .4 95.5 31.1 99.9 31.1 99.9 7.2 100 7.2 109.5 19.1 110.2 19.1 119.6 7.2 119.7 7.2 119.7 31.1 124.1 31.1 124.1 .4 120 .4 109.9 13 99.7 .4 95.5 .4"/>
  <polygon points="149.1 .4 149.1 31.1 153.5 31.1 153.5 7.2 153.6 7.2 163.1 19.1 163.8 19.1 173.3 7.2 173.4 7.2 173.4 31.1 177.8 31.1 177.8 .4 173.7 .4 163.5 13 153.3 .4 149.1 .4"/>
  <polygon points="196.9 .4 208.3 14.9 208.3 31.1 212.7 31.1 212.7 14.9 224.1 .4 218.8 .4 210.5 11 202.3 .4 196.9 .4"/>
  <rect x="245.2" y=".4" width="47.2" height="7.6" fill="#fff" stroke="#000" stroke-miterlimit="10"/>
  <polygon points="317.5 .4 317.5 31.1 321.9 31.1 321.9 17.7 339.1 17.7 339.1 31.1 343.5 31.1 343.5 .4 339.1 .4 339.1 13.8 321.9 13.8 321.9 .4 317.5 .4"/>
  <rect x="361.8" y=".4" width="4.4" height="30.7"/>
  <polygon points="384.3 .4 384.3 31.1 402.6 31.1 402.6 27.1 388.7 27.1 388.7 .4 384.3 .4"/>
  <polygon points="415.2 .4 415.2 31.1 419.6 31.1 419.6 16.8 431.6 16.8 431.6 12.8 419.6 12.8 419.6 4.4 431.6 4.4 431.6 .4 415.2 .4"/>
  <rect x="447.1" y=".4" width="4.4" height="30.7"/>
  <polygon points="510.3 .4 510.3 31.1 528.1 31.1 528.1 27.1 514.7 27.1 514.7 17.6 527.3 17.6 527.3 13.6 514.7 13.6 514.7 4.4 527.7 4.4 527.7 .4 510.3 .4"/>
  <path d="M58.3,0c-10,0-16.5,7.2-16.5,15.7s6.3,15.8,16.4,15.8,16.6-7.5,16.6-15.8S68.4,0,58.3,0ZM58.3,27.4c-6.8,0-11.9-5-11.9-11.7s5.1-11.7,11.9-11.7,12,5,12,11.7-5.1,11.7-12,11.7Z"/>
  <path d="M562.6,25c-2.3-3.8-4-6.7-6.8-8.5,3.3-1.3,5.1-4,5.1-7.5,0-5.3-3.9-8.6-10.1-8.6h-7.6v30.7h4.4v-13.3h1.8c2.3,0,4.1.7,8.1,7l4,6.3h5.3c-2.1-2.9-2.9-4-4.2-6.1ZM550.4,13.8h-2.8V4.2h2.8c4.3,0,6,1.8,6,4.6,0,2.6-1.3,5-6,5Z"/>
  <rect x="245.2" y="23.4" width="47.2" height="7.7" fill="#fff" stroke="#000" stroke-miterlimit="10"/>
</svg>