<?xml version="1.0" encoding="UTF-8"?>
<svg id="Capa_1" xmlns="http://www.w3.org/2000/svg" version="1.1" viewBox="0 0 2500 2128">
  <!-- Generator: Adobe Illustrator 29.0.1, SVG Export Plug-In . SVG Version: 2.1.0 Build 192)  -->
  <path d="M63.77,1832.55l23.66-56.74,22.36,56.74h-46.02ZM180.73,1892.71c-5.8,0-11.88-3.41-15.26-10.62l-62.75-159.43h-14.17l-62.58,159.43c-3.52,7.2-9.42,10.62-15.36,10.62H.03v13.11h66.09v-13.11h-12.94c-5.97,0-10.65-5.8-8.3-10.62l13.11-33.08h57.8l14.17,33.08c1.19,4.81-2.39,10.62-9.39,10.62h-13.11v13.11h83.88v-13.11h-10.62ZM366.65,1905.82v-13.11h13.04c5.84,0,10.58-5.8,10.58-10.62v-112.25l-61.38,135.94h-16.63l-61.45-135.94v112.25c0,4.81,4.78,10.62,10.65,10.62h13.04v13.11h-65v-13.11h13.08c5.84,0,10.58-5.8,10.58-10.62v-132.29c.02-5.84-4.7-10.6-10.55-10.62h-13.11v-14.17h57.93l60.26,135.84,61.48-135.84h59.06v14.17h-13.11c-5.84,0-10.58,4.74-10.58,10.58,0,.01,0,.02,0,.03v132.29c0,4.81,4.78,10.62,10.58,10.62h13.08v13.11h-81.56ZM470.61,1905.82v-13.11h12.97c5.87,0,10.62-5.8,10.62-10.62v-132.29c.02-5.84-4.7-10.6-10.55-10.62h-13.01v-14.17h152.4v60.19h-14.13v-5.87c0-21.34-16.59-37.83-37.89-37.83h-41.31v65.03h17.75c11.73.04,21.27-9.44,21.3-21.17,0-.06,0-.11,0-.17v-7h14.07v71.97h-14.07v-7.07c.04-11.69-9.41-21.2-21.1-21.23-.07,0-.14,0-.21,0h-17.75v68.52h46.09c21.3,0,37.89-17.79,37.89-37.83v-12.94h14.13v66.16h-157.21v.03h0ZM621.81,2114.92c-34.21,0-44.79-27.24-44.79-62.61s10.58-62.65,44.76-62.65,43.73,27.14,43.73,62.65c.03,35.37-9.49,62.61-43.7,62.61M621.81,1976.66c-47.32,0-75.55,30.73-75.55,75.65s28.23,75.65,75.52,75.65c42.61,0,75.69-29.6,75.69-75.65s-33.08-75.65-75.69-75.65M854.67,1989.66c-4.78,0-8.36,4.75-8.36,9.46v76.78c0,31.85-25.95,52.03-57.8,52.03s-57.93-20.21-57.93-52.03v-76.78c0-4.75-3.55-9.46-8.19-9.46h-13.08v-10.65h70.87v10.65h-12.9c-3.52,0-8.33,4.75-8.33,9.46v76.78c0,22.43,16.56,34.28,36.56,34.28s35.5-11.85,35.5-34.28v-76.78c0-4.75-3.52-9.46-8.33-9.46h-12.9v-10.65h56.67v10.65h-11.78,0ZM712.86,1805.38v-63.84h33.11c17.68,0,29.39,14.17,29.39,31.92.07,17.79-11.61,31.95-29.36,31.95h-33.11l-.03-.03ZM822.65,1892.71c-7,0-12.94-4.68-17.68-10.62l-37.72-60.26c25.95-1.16,43.53-22.5,43.53-48.44s-20.04-48.37-45.99-48.37h-111.09v14.17h12.87c7.27,0,10.65,4.68,10.65,10.62l.07,132.29c.08,5.79-4.55,10.54-10.34,10.62-.1,0-.21,0-.31,0h-12.97v13.11h82.68v-13.11h-12.94c-5.97,0-10.58-5.8-10.58-10.62v-60.26h15.26l51.99,83.95h50.8v-13.11h-8.19v.03h-.03ZM851.09,1905.82v-13.11h12.97c5.84,0,10.58-5.8,10.58-10.62v-132.29c.02-5.84-4.7-10.6-10.55-10.62-.03,0-.07,0-.1,0h-12.87v-14.17h82.65v14.17h-12.97c-5.83-.06-10.59,4.62-10.65,10.45,0,.06,0,.11,0,.17v132.29c0,4.81,4.71,10.62,10.65,10.62h12.97v13.11h-82.68,0ZM1002.29,2027.45v-4.71c0-17.75-14.17-30.73-30.66-30.73h-11.85v113.44c0,4.75,3.52,8.23,8.13,8.23h10.65v11.81h-66.09v-11.81h10.58c4.47.15,8.21-3.35,8.36-7.81,0-.14,0-.28,0-.42v-113.44h-11.88c-16.82-.08-30.51,13.5-30.59,30.31,0,.14,0,.27,0,.41v4.71h-10.72v-48.44h134.71v48.44h-10.65ZM1042.43,1909.33c-57.8,0-92.14-39.02-92.14-93.34s34.34-93.27,92.07-93.27c41.44,0,66.26,11.74,66.26,11.74v50.8h-14.27c-4.61-27.21-20.01-47.28-51.99-47.28-37.76,0-54.25,36.67-54.25,77.97s18.91,76.78,54.32,76.78c31.95,0,47.35-17.68,51.93-50.73h14.27v54.35s-22.5,12.97-66.2,12.97M1140.65,2027.45v-4.71c0-17.75-14.27-30.73-32.02-30.73h-33.11v53.22h13.08c9.58.15,17.47-7.48,17.62-17.06,0-.24,0-.48,0-.72v-5.84h10.65v59.03h-10.65v-5.87c0-9.49-7-16.59-17.62-16.59h-13.11v47.32c0,4.75,3.58,8.23,8.3,8.23h16.59v11.81h-72.14v-11.81h10.65c4.41.13,8.09-3.33,8.23-7.74,0-.16,0-.32,0-.49v-106.31c0-4.75-3.52-9.46-8.19-9.46h-10.69v-10.65h122.97v48.44h-10.55v-.07h0ZM1168.89,2125.5v-11.81h10.65c4.45.1,8.13-3.43,8.23-7.88,0-.11,0-.23,0-.35v-106.31c0-4.75-3.58-9.46-8.19-9.46h-10.69v-10.65h67.36v10.65h-10.65c-4.57,0-9.42,4.75-9.42,9.46v106.31c0,4.75,4.88,8.23,9.42,8.23h10.65v11.81h-67.36ZM1186.6,1832.55l22.4-56.74,23.69,56.74h-46.09ZM1302.4,1892.71c-5.94,0-11.81-3.41-15.29-10.62l-62.61-159.43h-13.11l-63.84,159.43c-2.29,6.43-8.4,10.69-15.23,10.62h-10.65v13.11h66.16v-13.11h-12.97c-5.94,0-9.52-5.8-8.36-10.62l13.11-33.08h59.09l12.87,33.08c2.39,4.81-2.29,10.62-8.19,10.62h-13.04v13.11h83.85v-13.11h-11.78,0ZM1374.47,2027.45v-4.71c0-17.75-12.97-30.73-30.73-30.73h-11.85v113.44c0,4.75,4.68,8.23,9.49,8.23h10.58v11.81h-67.32v-11.81h10.65c4.45.1,8.13-3.43,8.23-7.88,0-.11,0-.23,0-.35v-113.44h-11.91c-16.87-.08-30.62,13.54-30.69,30.42,0,.1,0,.21,0,.31v4.71h-10.58v-48.44h135.87v48.44h-11.74ZM1516.59,1739.22c-5.81-.09-10.59,4.54-10.68,10.34,0,.09,0,.18,0,.28v159.5h-17.65l-113.44-141.75v114.54c0,4.81,4.78,10.62,10.65,10.62h15.36v13.11h-72.1v-13.11h17.75c5.94,0,10.62-5.8,10.62-10.62v-132.29c.06-5.81-4.6-10.56-10.41-10.62-.06,0-.11,0-.17,0h-17.75v-14.17h56.67l102.83,127.51v-102.76c.02-5.84-4.7-10.6-10.55-10.62-.03,0-.07,0-.1,0h-17.68v-14.17h72.03v14.17h-15.36v.03ZM1525.33,2027.45v-4.71c0-17.75-12.97-30.73-30.73-30.73h-11.95v113.44c0,4.75,4.88,8.23,8.36,8.23h10.58v11.81h-66.13v-11.81h10.65c4.78,0,8.23-3.52,8.23-8.23v-113.44h-11.74c-16.89-.13-30.69,13.46-30.83,30.35,0,.13,0,.25,0,.38v4.71h-10.65v-48.44h135.94v48.44h-11.74,0ZM1551.28,2125.5v-11.81h10.65c4.45.1,8.13-3.43,8.23-7.88,0-.11,0-.23,0-.35v-106.31c0-4.75-3.55-9.46-8.19-9.46h-10.69v-10.65h122.97v48.44h-10.58v-4.71c.09-16.89-13.52-30.66-30.42-30.76-.15,0-.3,0-.45,0h-34.28v53.26h14.27c9.68-.29,17.44-8.11,17.65-17.79v-5.84h10.65v59.03h-10.65v-5.87c0-9.49-8.19-16.59-17.65-16.59h-14.27v54.38h37.76c16.83-.27,30.43-13.82,30.76-30.66v-10.65h10.65v54.32h-126.42v-.1h0ZM1615.94,1905.82v-13.11h12.97c5.91,0,9.39-5.8,9.39-10.62v-132.29c0-5.94-3.58-10.62-9.42-10.62h-12.97v-14.17h151.24v60.19h-13.04v-5.87c0-21.34-17.68-37.83-39.02-37.83h-41.27v65.03h17.68c11.71.02,21.22-9.46,21.23-21.17,0-.06,0-.11,0-.17v-7h14.27v71.97h-14.27v-7.07c.04-11.69-9.41-21.2-21.1-21.23-.05,0-.09,0-.14,0h-17.68v68.52h46.02c21.23,0,37.76-17.79,37.76-37.83v-12.94h14.24v66.16h-155.88v.03h0ZM1769.05,2044.01h-26.01v-51.99h26.01c14.13,0,24.85,11.95,24.85,26.01s-10.72,25.98-24.85,25.98M1836.1,2113.69c-5.92.22-11.43-2.98-14.17-8.23l-30.73-48.44c20.07-1.13,35.37-17.75,35.37-39.02s-16.49-39.02-37.83-39.02h-89.75v10.65h10.65c4.68,0,9.42,4.75,9.42,9.46v106.31c0,4.75-4.78,8.23-9.42,8.23h-10.65v11.81h67.36v-11.81h-10.58c-4.45.15-8.18-3.33-8.33-7.78,0-.15,0-.3,0-.45v-48.44h11.81l42.5,68.48h41.38v-11.81h-7.03v.07h0ZM1852.18,1832.55l22.36-56.74,23.69,56.74h-46.09.03ZM1969.17,1892.71c-7.17,0-12.97-3.41-15.5-10.62l-63.7-159.43h-12.97l-63.74,159.43c-2.15,6.12-7.79,10.32-14.27,10.62h-11.85v13.11h67.42v-13.11h-13.08c-5.8,0-10.65-5.8-8.16-10.62l12.9-33.08h57.9l13.04,33.08c2.32,4.81-2.39,10.62-8.19,10.62h-13.08v13.11h83.88v-13.11h-10.62ZM1912.84,2127.96c-34.34,0-54.45-11.85-54.45-11.85v-44.93h11.95c3.52,27.17,16.49,43.73,42.5,43.73,15.36,0,27.07-9.46,27.07-24.85,0-38.95-82.62-13.08-82.62-72.07,0-29.53,23.62-41.34,47.21-41.34,32.02,0,48.51,11.81,48.51,11.81v36.6h-10.65c-4.75-22.4-14.17-35.4-37.83-35.4-12.97,0-23.56,7.1-23.56,20.01,0,36.73,82.65,16.66,82.65,74.56-.07,31.89-23.73,43.73-50.8,43.73M2148.71,1828.97c-5.81-.04-10.55,4.64-10.58,10.45,0,.07,0,.14,0,.21v53.05s-27.21,16.59-69.78,16.59c-57.9,0-93.2-39.02-93.2-93.34-.1-55.48,35.3-93.27,93.2-93.27,41.34,0,66.16,11.74,66.16,11.74v50.8h-14.17c-5.94-27.21-21.34-47.28-51.99-47.28-37.76,0-54.35,36.67-54.35,77.97s17.79,76.78,54.35,76.78c16.59,0,27.17-3.41,35.4-11.74v-41.34c.04-5.84-4.67-10.61-10.51-10.65-.02,0-.05,0-.07,0h-15.36v-14.17h81.59v14.17h-10.69v.03ZM2173.87,1905.82v-13.11h13.08c5.8,0,10.58-5.8,10.58-10.62v-132.29c.02-5.84-4.7-10.6-10.55-10.62h-13.11v-14.17h88.62v14.17h-20.11c-5.84-.04-10.61,4.67-10.65,10.51,0,.03,0,.07,0,.1v140.58h42.5c20.18,0,37.89-17.79,37.89-37.83v-12.94h12.97v66.16h-151.24v.03h0ZM2343.98,1905.82v-13.11h13.04c4.78,0,9.46-5.8,9.46-10.62v-132.29c0-5.94-4.75-10.62-9.46-10.62h-13.04v-14.17h151.24v60.19h-12.94v-5.87c0-21.34-17.75-37.83-39.02-37.83h-41.27v65.03h17.62c11.75.04,21.3-9.45,21.34-21.2,0-.05,0-.09,0-.14v-7h14.17v71.97h-14.17v-7.07c0-11.73-9.51-21.23-21.23-21.23-.03,0-.07,0-.1,0h-17.62v68.52h46.09c21.2,0,37.69-17.79,37.69-37.83v-12.94h14.24v66.16h-156.02v.03h0ZM991.02,1282.17c10.65-21.68,49.33-46.02,52.16-32.77,10.96,50.01-25.84,78.69-29.43,80.12,0-.03,3.48-26.63-22.74-47.35M1981.05,251.61c113.27-43.02,122.56-104.94,122.56-104.94,1.02-7.99-3.65-4.23-7.95-.41-2.59,2.42-5.46,4.78-5.46,4.78-50.94,41.34-138.5,78.52-138.5,78.52-16.49,4.37-3.35-9.18-3.35-9.18,152.26-126.01,133.59-176.7,133.59-176.7-2.39-7.1-8.5-2.25-13.66,3.17-3.72,3.93-7.41,8.09-7.41,8.09-125.26,129.59-191.35,141.95-191.35,141.95-17.58-.61-4.85-14.68-4.85-14.68,140.99-106.51,135.02-164.35,135.02-164.35-1.47-23.66-18.5,1.33-18.5,1.33-50.39,78.11-158.3,135.36-158.3,135.36-24.99,12.02-12.39-7-12.39-7,39.33-40.83,54.83-88.35,54.83-88.35,5.39-26.42-22.5,3.45-22.5,3.45-46.26,55.41-305.27,183.19-305.27,183.19-204.29,86.68-250.72,333.37-250.72,333.37-52.88,164.52-134.85,173.67-134.85,173.67-84.46-75.24-154.14-227.43-154.14-227.43-40.25-100.85-186.06-179.02-275.71-241.36-59.03-41.17-59.16-50.7-85.69-78.86-2.05,9.18,1.43,20.45,3.17,21.78-120.44-59.5-94.67-220.88-94.67-220.88.68-8.84-5.6-6.73-9.22-1.4-27.93,39.5-14.88,145.33-14.88,145.33-27.07-10.86-31.24-113.92-31.24-113.92-4.03-7.37-9.9,14.34-9.9,14.34-14.27,53.6,0,155.06,0,155.06-24.1-5.87-26.63-83.44-26.63-83.44-5.36-10.07-7.65,6.42-7.65,6.42-24.24,152.91,65.96,221.25,65.96,221.25-17.75-2.15-46.19-24.48-46.19-24.48-10.21-3.86,10.65,23.9,10.65,23.9,22.12,30.08,29.56,23.59,66.98,57.18,2.83,5.43-30.52-1.84-30.52-1.84-5.67,6.35,11.78,17.41,11.78,17.41,23.28,18.67,51.55,41.21,51.55,41.21,3.14,5.84-29.29,3-29.29,3-4.3,8.43,70.5,35.57,70.5,35.57,38.61,13.42,77.29,26.59,113.85,44.62,35.85,17.79,68.72,41.31,101.43,63.4,9.42,6.49,20.04,13.48,28.44,21.34,37.83,34.75,72.2,76.85,82.96,128.43,5.26,25.57-43.29,37.42-43.29,37.42-123.75,47.93-96.17,102.01-96.17,102.01-45.06,41.34.24,82.62.24,82.62-1.57-15.09,10.82-33.11,10.82-33.11,12.49-14.24,17.62-2.8,17.62-2.8-8.4,18.98-4.51,21.58-4.51,21.58,12.32-16.76,44.11-16.01,44.11-16.01,40.63-4.51,54.21-16.08,54.21-16.08,121.81-27.55,98.66,113.92,98.66,113.92-1.33,14.68-4.78,28.98-9.52,42.91-4.57,13.89-29.63,64.25-30.66,68.07.51-.07,1.26.1,1.74-.07.17,3.04-2.73,7.58-3.76,10.38-1.57,3.96-9.97,23.79-12.12,34.21-5.43,25.81-16.63,56.36-38.34,47.93-13.31-5.26-25.67-12.9-38.82-18.57-14.95-6.42-32.6-13.11-49.16-9.93-5.67,1.02-13.45,4.71-17.65,8.64-2.18,2.12-8.3,11.2-6.79,17.07,5.56-5.53,14.95-7.54,22.57-8.33,3.89-.44,7.99-.55,11.95,0,1.84.31,3.41.55,5.05,1.23.44.17,3.52,1.91,3.65,1.91-3.62,1.44-6.91,3.6-9.66,6.35-4.19,4.59-7.09,10.21-8.4,16.28-.44,2.32-2.7,12.56-1.16,14.47,1.37-.68,2.12-2.39,3.35-3.31,2.05-1.57,3.82-3.24,5.91-4.75,3.28-2.42,6.86-4.44,10.65-5.77,3.18-1.14,6.56-1.65,9.93-1.5,1.57,0,3.24.17,4.85.48.51.17,3.89,1.5,4.27,1.3-6.04,4.03-11.27,9.97-11.88,17.41-.99,9.63,1.37,15.4,3.65,18.16,1.43,1.78,1.26.72,1.84-1.09,7.92-22.94,43.53-12.15,58.58-5.05,2.87,1.4,5.7,2.97,8.53,4.61,10.79,6.32,32.47,23.39,45.51,23.28.24.2,10.14.92,12.56,6.04.73,1.52,1.15,3.17,1.23,4.85-15.29,4.34-59.98,10.72-79.03,26.56-4.98,3.73-8.18,9.35-8.84,15.53-.92,9.63,6.62,17.58,7.85,18.03.38-.85.38-1.95.72-2.87,2.29-6.04,6.81-10.96,12.63-13.76,2.49-1.3,5.46-2.32,8.26-3.17,1.23-.35,2.48-.59,3.76-.72.61,0,2.9.07,3.35-.27-5.26,5.33-8.77,12.32-7.27,19.87,1.02,5.33,4.61,11.54,9.32,14.47,1.06-.92-1.71-7.75,10.07-15.33,6.21-3.99,13.66-6.35,18.09-6.42-5.35,7.15-7.11,16.37-4.78,24.99.92,3.65,2.49,7.17,4.61,10.48,1.57,2.25,4.1,6.32,6.73,7.54,1.13-.68.61-3.65.72-5.16.28-2.18.8-4.32,1.57-6.38,1.37-4.13,3.24-8.13,5.8-11.74,4.64-7.27,10.48-12.49,17.79-17.24,10.82-7,47.45-11.85,56.09-5.5,6.59,6.45,26.12,23.59,47.66,19.08,3.99-.07,7.99,3.58,10.62,8.67l.89,2.18c1.73,4.14,2.1,8.71,1.06,13.08-.55,3,1.37.89,2.39-.1,5.11-5.71,7.82-13.17,7.58-20.82-.44-8.26-4.2-16.01-8.94-22.67-1.5-2.12-3.17-4.75-5.26-6.35-12.97-10.72-31.48-16.93-37.89-19.02-6.66-4.27-16.39-23.66-5.94-43.29,1.71-3.2,3.91-6.11,6.52-8.64,3-2.97,8.6-1.43,11.33.65,5.84,4.54,5.5,13.83,8.91,20.21,2.12-1.13,3.21-4.2,4.2-6.38,1.4-3.45,2.08-7.17,3.55-10.51,1.5-3.07,3.17-6.08,4.85-8.94,8.17-12.86,18.46-24.25,30.42-33.7l.2-.27,1.02-.65s4.47,17.24,13.14,23.62c-.4-3.11-.44-6.27-.1-9.39,1.37-14.68,8.36-36.39,16.76-55.58,0,.92.2,1.67.2,2.59,1.06,9.25,6.73,14.47,10.72,12.49.48-7.34,1.6-13.93,3.17-19.83,12.02-27.38,31.51-42.2,36.9-42.57,15.36-4.2,9.25,21.34,9.25,21.34-7.34,22.12-33.93,54.55-40.52,62.47-7.44,10.99-18.44,30.49-8.67,43.49,1.16,1.4.89,1.16,2.66.27,1.06-.72,2.05-1.57,3.14-2.12,4.27-1.74,7.1.85,8.67,4.61,2.73,6.18-1.57,13.93,3.58,19.12,3.28,3.41,4.34-.24,8.67-.75,8.6-.89,14.03,7.41,16.93,14.41,1.91,4.47,1.5,6.28,6.32,5.16,4.44-.79,6.86-3.24,11.44-2.8,4.44.44,7.99,1.67,11.27,4.85,2.29,2.22,3.65,6.45,6.66,8.19,6.15,3.41,12.22-4.98,18.26-2.8,10.31,3.65,14.24,15.12,14.24,15.12,6.55,16.35,25.47,4.71,25.47,4.71,18.98-9.25,35.88,13.25,35.88,13.25,13.01,13.93,29.36,2.15,29.36,2.15,4.81-4.37,11.81-4.92,18.09-3.89,2.77.34,5.67.99,8.47,2.01,2.05.82,4.2,1.26,5.97,2.66,1.91,1.33,3.35,3.28,5.39,4.47,4.54,2.73,9.97,2.97,15.09,1.88,8.19-1.78,11.5-4.68,12.7-5.6,1.3-1.13,2.12-2.8,3.24-4.23.49-.77,1.06-1.48,1.71-2.12,3.52-3.07,8.81-4.98,13.21-6.35,2.17-.68,4.42-1.05,6.69-1.13,1.02,0,2.18-.2,3.41,0,1.95.2,3.99,1.19,5.91,1.74,1.74.41,3.55.75,5.39.92,2.9.25,5.82-.26,8.47-1.47,2.65-1.37,4.9-3.39,6.55-5.87,1.4-2.01,1.91-4.1,3.76-5.94,3.82-3.86,10.41-3.99,15.29-2.32l3.55,1.26c10.75,5.39,22.6,5.5,27.65-6.86,2.08-5.16,2.08-9.8,7.95-12.26,5.16-2.05,11.44-.96,16.42-4.4,4.44-3.14,4.98-10.21,9.22-13.86,5.46-4.88,14.88.55,20.21-6.42,8.74-11.13-8.94-58.21-33.18-73.26-21.34-13.38-44.18-24.2-64.35-39.09-99.62-73.06-153.76-200.77-153.76-200.77l-1.26-3.76c25.33,4.68,57.76,42.2,57.76,42.2,13.01,14.41,22.74,18.47,36.12,23.08,2.53.79,21.23,5.8,23.62-1.3-6.33-3.83-9.75-11.08-8.67-18.4,2.12-11.61,14.51-7.68,21.17-5.15,4.88,1.84,19.12,7.24,23.49,11.13,3.58-2.12,4.68-9.66,4.98-13.48.51-5.5-.99-12.43-1.78-17.82-.41-3.41-3.72-9.97.72-12.26,3.24-1.67,9.56,2.08,12.39,4.2,4.1,2.88,8.7,5,13.55,6.25.75.1,11.71,2.36,11.98.85,3.62-18.67-6.04-42.67-6.04-42.67-2.12-11.61,18.54-12.84,24.07-6.28.61.68,1.19,2.42,2.12,2.49,1.37.34,2.77-3.24,3.07-4.27.81-2.2,1.32-4.49,1.54-6.83.41-4.47,0-9.01-1.02-13.48-1.47-6.52-9.01-13.79-6.79-20.86,2.66-8.57,11.64-5.97,17.41-2.46,2.42,1.67,4.78,3.14,7,4.92.68.51,1.19.89,1.74,1.4.75.75,1.47,2.42,2.39,2.87,1.54.55,3.21-4.44,3.62-5.6.8-2.78,1.23-5.65,1.3-8.53,0-5.8-1.02-11.74-3.31-17.07-2.25-5.5-13.04-14.41-2.53-17.07,3-.81,6.17-.73,9.12.24,2.94,1.06,4.88,3.07,7.17,4.92,1.19.82,1.37.65,2.25-.75,1.54-4.55,1.6-9.48.17-14.07-2.25-7.1-7-13.14-11.47-19.15-8.74-14.24,14-20.01,14-20.01,4.54-.79,14-2.01,18.71,0,1.5.68,3.07,1.13,4.57,2.01,1.02.79,1.71-1.23,2.12-2.25,4.27-12.49-9.18-24.17-18.67-29.84-.17-.1-.41-.17-.51-.27-5.22-4.4-4.1-10.58.85-14.68,5.22-4.3,11.03-4.57,17.41-3.52,1.91.34,3.41,1.84,5.33,1.84,2.29.17,1.91-5.7,1.74-7.17-.74-4.22-2.67-8.14-5.56-11.3-4.27-4.44-15.43-9.18-9.22-17.1,3.28-3.96,10.92-5.91,15.7-6.08,5.91-.24,10.72,5.77,11.85-2.87.67-6.43-.52-12.92-3.41-18.71-1.19-1.91-3.31-3.07-4.71-4.64-4.75-5.43-3.35-14.95,2.66-18.95,6.42-3.95,14.38-4.49,21.27-1.43,2.56-3.76,1.3-9.9-.85-13.48-2.39-3.99-7.44-5.33-8.19-10.28-.68-4.37,2.29-8.57,5.46-11.3,5.7-5.33,13.25-7.34,19.25-12.43,3.31-2.8,8.02-9.97,4.47-13.93-4.92,1.5-12.97.17-15.67-4.85-3.93-7.44,9.59-11.06,15.36-12.6,4.44-1.06,8.74-1.84,13.14-2.73,18.26-3.86,22.94-9.12,21.78-16.69-4.17.27-9.97-.07-12.49-3.14-8.33-10.75,5.33-18.26,13.21-18.5,9.22-.27,17.58,0,26.87.14,19.94.34,20.62-10.34,20.62-10.34-27.65-10.99-17.07-22.74-17.07-22.74,25.06-16.52,49.98-4.2,69.58-15.91,7.07-4.34,6.59-8.33,6.59-8.33-12.09-1.11-24.07-3.3-35.78-6.52-6.35-1.74-3-9.39-3-9.39,1.91-14.1,57.18-8.74,82.45-16.18,22.26-6.69,15.64-17.79,15.64-17.79-17.41,2.39-37.21-9.59-37.21-9.59-6.45-11.33,22.4-9.63,22.4-9.63,43.7-2.53,49.23-24.72,49.23-24.72,3-9.15-18.67-.58-18.67-.58-27.99,5.09-27.89-8.74-27.89-8.74-.2-11.37,30.59-15.91,30.59-15.91,69.78-11.61,104.94-55.37,104.94-55.37,2.25-4.16,1.84-7-.92-7.58-6.42-1.43-21.51,4.81-21.51,4.81-40.52,19.05-89.92,20.35-89.92,20.35-5.33-.17-6.42-3.76-6.49-5.74-.24-4.85,8.88-9.52,8.88-9.52,17.21-7.1,89.61-29.91,126.66-56.09,35.57-25.09,40.08-56.23,40.08-56.23,1.6-10.86-16.18-3.04-30.18,3.69-8.19,3.93-15.84,7.34-15.84,7.34-139.9,62-119.01,25.67-119.01,25.67,8.23-13.38,54.32-30.69,54.35-30.69"/>
</svg>