<?xml version="1.0" encoding="utf-8"?>
<!-- Generator: Adobe Illustrator 19.0.0, SVG Export Plug-In . SVG Version: 6.00 Build 0)  -->
<svg version="1.1" id="layer" xmlns="http://www.w3.org/2000/svg" xmlns:xlink="http://www.w3.org/1999/xlink" x="0px" y="0px"
	 viewBox="-153 -46 652 652" style="enable-background:new -153 -46 652 652;" xml:space="preserve">
<path d="M468.1,237.4c-3.6-3.6-7.9-5.3-10.8-5.3c-2.7,0-7,1.6-9.7,3.9l-4.7,4.1v-6.7h-11.4v54.2h11.7v-29.2c0-12,4.9-17,10.9-17
	c3,0,5.8,1.1,8.7,2.3L468.1,237.4z M414.1,261.2c1.3-14.2-5.3-29-25.1-29c-14.7,0-30.8,8.6-30.8,27.3c0,19.1,13.4,29.5,33.7,29.5
	c6.8,0,14.8-2.3,21.6-6.3l-3.4-5.3c-4.5,2.8-11.8,4.7-17.8,4.7c-12.9,0-22.1-10-22-20.8H414.1z M403.4,254.7h-32.3
	c0.4-6.9,5.3-15.6,17.8-15.6C399.2,239.1,403.4,246.2,403.4,254.7L403.4,254.7z M353,287.7l-30.5-31l28.1-24.5l-13.7,0.2l-25.5,23
	h-1.9V208h-11.7v79.7h11.7V258h0.3l27.8,29.6H353z M267.3,287.6H280c-2.2-3.9-2.9-9.1-2.9-13.2v-23.8c0-15.8-14.3-18.4-24-18.4
	c-9.1,0-15.7,2.2-22.2,7.4l4.6,4.9c4.7-3.3,9.5-5.8,17-5.8c6.4,0,12.5,4.2,13,10.8l-15.7,4.1c-13.5,3.4-23.1,9.3-23.1,18.7
	c0,10.2,7.5,16.7,18.4,16.7c6,0,11.7-3.4,16.2-7.2l4.2-3.4C265.4,281.9,265.7,285.4,267.3,287.6L267.3,287.6z M248,281.3
	c-4.7,0-9.3-3.6-9.3-9.2c0-6.8,5.3-10.9,15.6-13.5l11.2-2.7C267,272.8,256.3,281.3,248,281.3z M212.8,261.2c1.3-14.2-5.3-29-25.1-29
	c-14.7,0-30.8,8.6-30.8,27.3c0,19.1,13.4,29.5,33.7,29.5c6.8,0,14.8-2.3,21.6-6.3l-3.4-5.3c-4.5,2.8-11.8,4.7-17.8,4.7
	c-12.9,0-22.1-10-22-20.8H212.8z M202.1,254.7h-32.3c0.4-6.9,5.3-15.6,17.8-15.6C197.8,239.1,202.1,246.2,202.1,254.7z M145.8,243.7
	l5.3-6.3c-3.6-3.6-7.9-5.3-10.8-5.3c-2.7,0-7,1.6-9.7,3.9l-4.7,4.1v-6.7h-11.4v54.2h11.7v-29.2c0-12,4.9-17,10.9-17
	C140.1,241.5,142.9,242.5,145.8,243.7z M98.4,258.9c0-7.8-4.2-26.8-29.5-26.8c-7.3,0-16.5,3.3-21.3,9.8h-0.3V208H35.7v79.7h11.7
	v-7.2h0.3c4.8,5.2,11.8,8.5,20,8.5C86.7,288.9,98.4,275.4,98.4,258.9L98.4,258.9z M85.8,259c0,9.9-4.2,23-18.2,23
	c-14.6,0-20.3-10-20.3-20.4c0-14,7.1-22.5,20.4-22.5C79.8,239.1,85.8,249.1,85.8,259z M18.6,261.2c1.3-14.2-5.3-29-25.1-29
	c-14.7,0-30.8,8.6-30.8,27.3c0,19.1,13.4,29.5,33.6,29.5c6.8,0,14.8-2.3,21.6-6.3l-3.4-5.3C10,280.1,2.8,282-3.2,282
	c-12.9,0-22.1-10-22-20.8L18.6,261.2z M8,254.7h-32.3c0.4-6.9,5.3-15.6,17.8-15.6C3.7,239.1,8,246.2,8,254.7z M-90,259.9
	c0-14.7,12.1-20.6,22.7-20.6c4.8,0,9.6,1.3,13.4,2.8l3.9-5.5c-4.8-3-10.8-4.4-17.4-4.4c-24.4,0-35.2,14.7-35.2,28.3
	c0,7.5,3.9,28.5,34.7,28.5c5.6,0,13.3-1.8,19.6-5.6l-3.2-5.4c-5.1,2.7-10.3,3.9-15.8,3.9C-83.1,281.8-90,271.1-90,259.9z
	 M-117.1,212.8c0-2.7-2.7-5.7-7.4-5.7c-4.7,0-7.4,3-7.4,5.7c0,2.9,1.7,6.6,7.4,6.6C-118.8,219.4-117.1,215.8-117.1,212.8z
	 M-130.4,287.6h11.7v-54.2h-11.7V287.6z"/>
<path d="M58.6,331.6L46,305.3h-5l-4.5,36.9h5.7l3.2-26.3L56.2,338H61l10.8-22.2l3.2,26.3h5.7l-4.5-36.9h-5.1L58.6,331.6z
	 M99.5,337.3c-4.1,0-7.5-3.1-7.5-7.8c0-4.6,3.4-7.5,7.5-7.5c4.2,0,7.6,2.9,7.6,7.5C107.1,334.3,103.6,337.3,99.5,337.3z M99.5,342.7
	c7.1,0,13.1-5.2,13.1-13.1c0-7.9-6-13-13.1-13c-7.1,0-13,5-13,13C86.5,337.5,92.4,342.7,99.5,342.7z M126.6,342.2h5.1l10.4-25h-5.9
	l-7.1,18l-7.2-18h-5.8L126.6,342.2z M171,329.6c0-7.9-5.4-13-12.5-13c-7.1,0-12.8,5-12.8,13c0,7.9,5.7,13.1,12.8,13.1
	c4.7,0,9.4-2,11.6-6.4c-1.4-0.6-3.1-1.3-4.5-2c-1.3,2.3-4,3.6-6.8,3.6c-4,0-7.1-2.4-7.7-6.3H171C171,331.1,171,330.2,171,329.6
	L171,329.6z M151.1,327.6c0.5-3.9,3.5-6.2,7.4-6.2c3.7,0,6.6,2.2,7.1,6.2H151.1z M203.3,307.7h-5.5v9.5h-4.5v4.6h4.5v20.4h5.5v-20.4
	h5.3v-4.6h-5.3V307.7z M226,337.3c-4.1,0-7.5-3.1-7.5-7.8c0-4.6,3.4-7.5,7.5-7.5c4.2,0,7.6,2.9,7.6,7.5
	C233.6,334.3,230.1,337.3,226,337.3z M226,342.7c7.1,0,13.1-5.2,13.1-13.1c0-7.9-6-13-13.1-13c-7.1,0-13,5-13,13
	C213,337.5,218.9,342.7,226,342.7z M269.6,328.7c0-4.9,3.2-6.7,6.4-6.7c3.2,0,5.2,2.2,5.2,6.2v13.9h5.5v-14.6c0-7.1-3.5-11-9.5-11
	c-2.8,0-6.2,1.4-7.7,4.3v-3.7h-5.5v25h5.5L269.6,328.7z M315.3,342.2h5.5v-25h-5.5v3.5c-1.7-2.8-5.4-4.1-8.4-4.1
	c-6.7,0-12.7,5-12.7,13c0,8,5.9,13.1,12.7,13.1c3.1,0,6.7-1.4,8.4-4.1V342.2z M299.9,329.6c0-4.6,3.5-7.6,7.7-7.6
	c3.7,0,7.7,2.7,7.7,7.6c0,4.9-3.6,7.8-7.7,7.8C303.4,337.3,299.9,334.2,299.9,329.6z M337.5,307.7h-5.5v9.5h-4.5v4.6h4.5v20.4h5.5
	v-20.4h5.3v-4.6h-5.3V307.7z M366.3,330.6c0,5-3.2,6.7-6.4,6.7c-3,0-5.2-2.1-5.2-6.3v-13.9h-5.5v14.6c-0.1,7.1,3.6,11,9.7,11
	c2.6,0,6-1.3,7.4-4.2v3.6h5.5v-25h-5.5V330.6z M386.5,333.2c0-6.6,2-11.3,6.7-11.3c1.1,0,2.3,0.2,3.7,0.9l0.9-5.1
	c-0.8-0.5-2.7-1-4.4-1c-3.1,0-5.6,1.8-6.9,6.3v-5.7H381v25h5.5L386.5,333.2z M423.1,342.2h5.5v-25h-5.5v3.5
	c-1.7-2.8-5.4-4.1-8.4-4.1c-6.7,0-12.7,5-12.7,13c0,8,5.9,13.1,12.7,13.1c3.1,0,6.7-1.4,8.4-4.1V342.2z M407.7,329.6
	c0-4.6,3.5-7.6,7.7-7.6c3.7,0,7.7,2.7,7.7,7.6c0,4.9-3.6,7.8-7.7,7.8C411.2,337.3,407.7,334.2,407.7,329.6z M437.8,342.2h5.5v-38.6
	h-5.5V342.2z"/>
</svg>
