<?xml version="1.0" encoding="UTF-8"?>
<svg id="Capa_1" xmlns="http://www.w3.org/2000/svg" version="1.1" viewBox="0 0 77 32">
  <!-- Generator: Adobe Illustrator 29.0.1, SVG Export Plug-In . SVG Version: 2.1.0 Build 192)  -->
  <path d="M61.4,19.73c-4.69,0-5.55-2.75-5.55-3.43h3.4c0,.4.53.88.99,1.07.37.15.78.21,1.18.19h0c.96,0,1.74-.24,1.74-.8,0-.69-.8-.84-1.69-.97-2.41-.35-5.79-.76-5.79-3.5,0-2.55,2.75-3.85,5.67-3.85,4.67,0,5.91,2.62,5.91,3.38h-3.45c-.04-.39-.28-.73-.63-.91h0c-.42-.22-.88-.33-1.36-.34h0c-1.29,0-2.02.27-2.02.87,0,.49.65.73,1.59.9,2.45.43,6.22.57,6.22,3.6,0,1.54-1.31,3.77-6.19,3.77h0ZM55.64,10.05l-1.32,1.46h-.55l.61-1.59h-1.21v-2.12h2.48v2.25ZM47.95,8.71h4.39v10.71h-4.39v-10.71ZM42.22,19.44h-3.84l-5.73-10.71h5.17l3.29,6.51.09.2.08-.2,3.07-6.51h3.1l-5.24,10.71ZM33.98,14.99h-8.89c.05,1.4,1.21,2.49,2.61,2.45.04,0,.07,0,.11,0h0c.92.05,1.81-.38,2.35-1.14h0s3.54,0,3.54,0c-1.16,2.7-3.41,3.46-6.47,3.46-3.98,0-6.8-2.18-6.8-5.65,0-3.7,2.77-5.65,6.8-5.65,4.5,0,6.76,2.96,6.76,5.8.01.25,0,.5-.02.75v-.02s0,0,0,0ZM20.36,19.43h-10.13v-10.69h4.55v7.78h5.57v2.91ZM72.24,0c.03.07.07.13.1.2.27.61.42,1.32.42,2.06v.05h0s0,.05,0,.05c0,.75-.16,1.47-.44,2.12v-.03c-.26.63-.65,1.21-1.13,1.7-.47.47-1.03.85-1.65,1.11h-.03c-.64.28-1.32.42-2.01.41h-.04,0-.03c-.73,0-1.43-.15-2.06-.41h.04c-.63-.25-1.21-.63-1.69-1.11-.48-.48-.87-1.04-1.14-1.67v-.03c-.3-.66-.44-1.37-.44-2.09v-.06h0s0-.04,0-.04c0-.75.16-1.45.44-2.09v.03c.02-.07.05-.13.09-.2H0l7.41,32c15.56-10.14,30.5-.4,31.11-.02h0s0,0,0,0h0s0,0,0,0c.6-.37,15.55-10.11,31.1.02L77.05,0h-4.81ZM27.15,10.7h-.02c-1.13,0-2.05.92-2.05,2.05h0v.1s0,0,0,0h4.3c.07-1.12-.78-2.08-1.89-2.15-.12,0-.24,0-.35,0h0s0,0,0,0ZM64.35,5.58c.8.84,1.91,1.32,3.07,1.32h.04,0,.04c.61,0,1.18-.13,1.7-.36h-.03c.52-.22.99-.54,1.38-.95h0c.39-.41.69-.89.91-1.42v-.03c.22-.53.34-1.14.34-1.78v-.05h0s0-.03,0-.03c0-.61-.12-1.22-.34-1.78v.03c-.06-.19-.15-.37-.25-.54V0S69.72,0,69.72,0c.15.27.23.58.23.92v.07s0,0,0,0c.04.46-.13.92-.47,1.24h0c-.32.26-.71.43-1.15.47h0l1.76,2.76h-1.03l-1.68-2.69h-1.02v2.69h-.96V0h-1.72c-.08.14-.16.31-.24.49v.03c-.23.56-.35,1.15-.34,1.75v.04h0s0,.05,0,.05c0,.64.12,1.25.34,1.81v-.03c.21.56.52,1.05.91,1.45h0s0,0,0,0ZM67.98,1.95c.19-.01.36-.05.53-.12h-.01c.15-.06.27-.17.36-.3h0c.09-.15.14-.33.14-.52v-.06s0,0,0,0v-.04c0-.16-.04-.32-.12-.46h0c-.08-.11-.18-.21-.31-.28h0c-.13-.07-.28-.12-.43-.14h0c-.07-.01-.14-.02-.21-.03h-1.55v1.98h1c.22,0,.42,0,.61-.02h0Z"/>
</svg>