<?xml version="1.0" encoding="UTF-8"?><svg id="Layer_2" xmlns="http://www.w3.org/2000/svg" viewBox="0 0 479.74 197.92"><defs><style>.cls-1{stroke-width:0px;}</style></defs><g id="Layer_1-2"><path class="cls-1" d="M145.62,161.22c.56,0,.64.24.64.64l-.8,6.32c-.4,2.96-2.24,5.52-8.56,5.52-5.52,0-7.36-2.16-7.36-4.72,0-.24.08-.64.08-.88l1.68-13.75c.4-2.96,2.24-5.52,8.48-5.52,5.52,0,7.36,2.16,7.36,4.8,0,.24-.08.56-.08.88l-.16,1.44c-.08.4-.24.72-.8.72h-2c-.48,0-.64-.24-.56-.72l.08-.96c.08-.24.08-.4.08-.64,0-1.52-1.12-2.48-4.08-2.48-3.2,0-4.64,1.2-4.88,3.12l-1.52,12.56c0,.24-.08.48-.08.72,0,1.68,1.12,2.56,4.08,2.56,3.28,0,4.56-1.12,4.88-3.04l.4-3.44h-4.24c-.48,0-.64-.24-.64-.72l.16-1.68c.08-.48.24-.64.8-.64l7.04-.08h0ZM161.78,160.58v-.4c0-1.36-1.12-2-3.44-2-2.64,0-3.92.88-4.08,2.4l-.96,7.92c-.08.16-.08.24-.08.4,0,1.36,1.04,2,3.52,2,2.64,0,3.92-.88,4.08-2.4l.96-7.92h0ZM150.9,160.26c.32-2.96,2.48-4.96,7.68-4.96,4.48,0,6.64,1.68,6.64,4.24,0,.24,0,.4-.08.64l-1.04,8.56c-.4,2.96-2.48,4.96-7.68,4.96-4.56,0-6.64-1.68-6.64-4.32,0-.16,0-.4.08-.64l1.04-8.48h0ZM177.21,155.7l.32-2.56c.4-2.96,2.4-4.96,7.6-4.96h.4c.48,0,.64.16.64.64l-.16,1.52c-.08.48-.32.72-.8.72h-.32c-2.72,0-3.84.88-4,2.32l-.24,2.24h3.52c.48,0,.72.16.64.64l-.16,1.44c-.08.48-.24.72-.8.72h-3.52l-2.72,21.51c-.08.48-.24.72-.72.72h-2.16c-.4,0-.64-.24-.56-.72l2.64-21.51h-2.16c-.48,0-.64-.24-.64-.72l.16-1.28c.08-.48.24-.64.8-.72l1.92-.16.32.16h0ZM188.65,168.34c-.08.16-.08.32-.08.48,0,1.04.64,1.84,2.48,1.84,2.24,0,4.24-1.28,5.12-1.84l1.12-8.56c-.72-.64-2.32-1.84-4.56-1.84-2,0-2.8,1.12-2.96,2.32l-1.12,7.6h0ZM195.84,171.61c-1.12.8-3.12,2.08-6.16,2.08s-4.64-1.6-4.64-4.08c0-.24.08-.56.08-.8l1.12-8.56c.4-2.96,1.92-4.88,5.6-4.88,2.96,0,4.88,1.28,5.76,2.16l.24-1.12c.08-.48.24-.72.72-.72h1.92c.4,0,.64.16.56.72l-2,16.31c-.08.48-.24.72-.8.72h-1.92c-.4,0-.56-.16-.56-.72l.08-1.12h0ZM215.28,156.1l-.24,1.68c-.08.48-.24.64-.8.64-2.56.16-4.88,1.52-5.76,2.24l-1.44,12c-.08.48-.24.72-.8.72h-2.16c-.48,0-.64-.24-.64-.72l2-16.31c.08-.4.24-.64.72-.64h1.92c.4,0,.64.24.64.64l-.08,1.52c1.12-.96,3.2-2.48,5.84-2.48.56,0,.88.24.8.72M215.68,172.73c-.08.48-.24.64-.72.64h-2.16c-.4,0-.64-.16-.56-.64l.32-2.88c.08-.48.24-.64.8-.64h2.16c.48,0,.64.24.56.64l-.4,2.88ZM241.51,149.06c.48,0,.64.16.64.64l-.24,1.6c-.08.48-.24.72-.8.72h-10.32l-.96,7.28h9.68c.48,0,.72.16.64.64l-.24,1.68c-.08.4-.24.64-.8.64h-9.6l-1.28,10.4c-.08.48-.24.72-.72.72h-2.16c-.4,0-.72-.24-.64-.72l2.88-22.87c.08-.48.24-.72.8-.72h13.11ZM245.91,162.74h7.2l.24-2.16c.08-.16.08-.4.08-.56,0-1.2-.88-2-3.36-2-2.72,0-3.68.96-3.92,2.4l-.24,2.32ZM256.06,164.58c-.08.4-.24.64-.72.64h-9.76l-.4,3.04c-.08.4-.08.64-.08.8,0,1.2.88,2,3.36,2,2.72,0,3.68-.96,3.92-2.32l.08-.64c.08-.4.32-.64.8-.64h1.84c.48,0,.64.24.64.64l-.08.64c-.4,2.96-2,4.96-7.2,4.96-4.56,0-6.48-1.68-6.48-4.24,0-.24,0-.4.08-.64l1.04-8.56c.32-2.96,2.24-4.96,7.36-4.96,4.4,0,6.32,1.68,6.32,4.24,0,.24,0,.48-.08.64l-.64,4.4h0ZM263.02,162.74h7.2l.24-2.16c.08-.16.08-.4.08-.56,0-1.2-.88-2-3.36-2-2.64,0-3.68.96-3.92,2.4l-.24,2.32ZM273.17,164.58c0,.4-.24.64-.72.64h-9.76l-.4,3.04c-.08.4-.08.64-.08.8,0,1.2.88,2,3.36,2,2.72,0,3.68-.96,3.92-2.32l.08-.64c.08-.4.32-.64.8-.64h1.84c.4,0,.64.24.56.64l-.08.64c-.4,2.96-2,4.96-7.2,4.96-4.56,0-6.48-1.68-6.48-4.24,0-.24,0-.4.08-.64l.96-8.56c.32-2.96,2.24-4.96,7.36-4.96,4.4,0,6.32,1.68,6.32,4.24,0,.24,0,.48-.08.64l-.48,4.4h0ZM279.49,172.73c-.08.48-.24.72-.8.72h-2.16c-.4,0-.64-.24-.56-.72l2.88-23.59c.08-.48.24-.72.8-.72h2.16c.4,0,.64.24.56.72l-2.88,23.59h0ZM293.41,168.1c-.08.24-.08.56-.08.72,0,1.12.64,1.84,2.48,1.84,2.24,0,4.24-1.28,5.12-1.84l1.12-8.56c-.72-.64-2.4-1.84-4.56-1.84-2,0-2.88,1.12-2.96,2.32l-1.12,7.36h0ZM289.81,169.61c0-.24.08-.56.08-.8l1.04-8.56c.4-2.96,1.92-4.88,5.6-4.88,2.96,0,4.88,1.28,5.76,2.16l.24-1.12c.08-.48.24-.72.72-.72h1.92c.48,0,.64.24.56.72l-2.32,19.43c-.4,2.96-2.32,4.96-7.68,4.96h-4.96c-.48,0-.72-.24-.64-.64l.16-1.52c.08-.4.32-.64.8-.64h4.96c2.72,0,3.76-.88,4-2.4l.48-3.76c-1.12.8-3.04,2-6,2-3.12-.16-4.72-1.84-4.72-4.24M320.28,160.58v-.4c0-1.36-1.12-2-3.52-2-2.64,0-3.92.88-4.08,2.4l-.96,7.92c-.08.16-.08.24-.08.4,0,1.36,1.04,2,3.52,2,2.64,0,3.92-.88,4.08-2.4l1.04-7.92h0ZM309.32,160.26c.4-2.96,2.48-4.96,7.68-4.96,4.48,0,6.64,1.68,6.64,4.24,0,.24,0,.4-.08.64l-1.04,8.56c-.4,2.96-2.48,4.96-7.68,4.96-4.56,0-6.64-1.68-6.64-4.32,0-.16,0-.4.08-.64l1.04-8.48ZM338.35,160.58v-.4c0-1.36-1.12-2-3.44-2-2.72,0-3.92.88-4.08,2.4l-.96,7.92c-.08.16-.08.24-.08.4,0,1.36,1.04,2,3.52,2,2.64,0,3.92-.88,4.08-2.4l.96-7.92h0ZM327.39,160.26c.4-2.96,2.48-4.96,7.68-4.96,4.48,0,6.64,1.68,6.64,4.24,0,.24,0,.4-.08.64l-1.04,8.56c-.32,2.96-2.48,4.96-7.68,4.96-4.56,0-6.64-1.68-6.64-4.32,0-.16,0-.4.08-.64l1.04-8.48ZM347.87,168.18c-.08.24-.08.48-.08.64,0,1.04.64,1.84,2.48,1.84,2.24,0,4.24-1.28,5.12-1.84l1.12-8.56c-.72-.64-2.4-1.84-4.56-1.84-2,0-2.88,1.12-2.96,2.32l-1.12,7.44h0ZM355.06,171.61c-1.12.8-3.04,2.08-6.08,2.08s-4.56-1.6-4.56-4.08c0-.24.08-.56.08-.8l1.12-8.56c.4-2.96,1.92-4.88,5.6-4.88,2.72,0,4.72,1.28,5.68,2l.96-8.32c.08-.48.24-.72.8-.72h2.16c.48,0,.64.24.64.72l-2.88,23.59c-.08.48-.24.72-.8.72h-1.92c-.48,0-.56-.24-.56-.72l-.24-1.04h0ZM364.26,172.73c-.08.48-.24.64-.72.64h-2.16c-.48,0-.64-.16-.56-.64l.32-2.88c.08-.48.24-.64.8-.64h2.16c.4,0,.64.24.56.64l-.4,2.88h0ZM366.18,148.34c.08,0,.16.08.16.16l-.08.4c0,.08-.08.16-.24.16h-.96l-.4,3.36c0,.08-.08.16-.16.16h-.56c-.08,0-.16-.08-.08-.16l.4-3.36h-.96c-.08,0-.16-.08-.16-.16l.08-.4c0-.08.08-.16.24-.16h2.72ZM370.34,152.34c0,.08-.08.16-.16.16h-.56c-.08,0-.16-.08-.16-.16l.32-2.48c-.08.08-.08.16-.08.24l-.88,1.6c-.08.08-.08.16-.24.16h-.4c-.08,0-.16-.08-.16-.16l-.56-1.6c0-.08-.08-.16-.08-.24l-.32,2.48c0,.08-.08.16-.16.16h-.4c-.08,0-.16-.08-.16-.16l.48-3.84c0-.08.08-.16.16-.16h.4c.08,0,.08.08.08.08l.8,2.24.08.24c.08-.08.08-.24.16-.24l1.36-2.24c0-.08.08-.08.16-.08h.48c.08,0,.16.08.16.16l-.32,3.84Z"/><path class="cls-1" d="M86.61,94.12c-4.16,0-9.6,1.12-12.56,7.44-2.48-5.44-7.2-7.44-12-7.44s-9.28,2.72-11.36,7.52v-6.64h-9.2v39.66h9.36v-20.31c.24-8.72,4.4-12,8.64-12,4.48,0,7.12,3.6,7.12,10.48v21.83h9.28v-20.31c.24-8.72,4.4-12,8.64-12,4.48,0,7.12,3.6,7.12,10.48v21.83h9.28v-21.91c0-11.52-4.32-18.63-14.31-18.63h0ZM137.15,100.84c-3.12-4.56-7.84-6.72-13.03-6.72-11.76,0-18.87,9.28-18.87,20.47s7.44,20.87,18.79,20.87c5.6,0,10.4-2.48,13.11-6.8v6h9.36v-39.66h-9.36v5.84h0ZM125.95,127.39c-7.04,0-11.36-5.6-11.36-12.72s4.08-12.56,11.12-12.56,11.68,5.28,11.68,12.88-5.12,12.4-11.44,12.4ZM170.65,94.92c-3.12.24-6.48,1.44-8.88,6.32v-6.16h-9.2v39.58h9.36v-18.39c0-10.96,5.52-13.03,9.12-13.67,1.28-.24,2.64-.24,4.08-.24v-7.44c-.48-.08-4-.08-4.48,0h0ZM195.2,119.95c.4.88.56,2.4.56,3.28,0,2.4-1.52,4.08-3.76,4.08-2.72,0-3.68-1.84-3.68-4.32v-20.63h10.48v-7.36h-10.48v-10.56h-9.28l-.08,17.91v19.43c0,10.88,6.32,13.75,12.72,13.75,8.24,0,12.16-5.2,12.16-10.96,0-.72-.16-2.96-.8-4.48l-7.84-.16h0ZM251.34,94.92l-8.24,26.55-7.84-25.51h-7.04l-7.84,25.51-8.4-26.55h-10l13.83,39.66h8.24l7.68-24.95,7.6,24.95h8.32l13.75-39.66h-10.08ZM281.01,94.12c-11.04,0-20.79,9.28-20.79,20.63s9.68,20.63,20.79,20.63,20.87-9.28,20.87-20.63c0-11.36-9.68-20.63-20.87-20.63ZM281.01,127.23c-6.48,0-11.36-5.44-11.36-12.48s4.96-12.48,11.36-12.48,11.44,5.6,11.44,12.48c.08,6.96-4.88,12.48-11.44,12.48ZM326.27,94.12c-11.04,0-20.79,9.28-20.79,20.63s9.68,20.63,20.79,20.63,20.87-9.28,20.87-20.63-9.68-20.63-20.87-20.63ZM326.43,127.23c-6.48,0-11.36-5.44-11.36-12.48s4.96-12.48,11.36-12.48,11.44,5.6,11.44,12.48c-.08,6.96-4.96,12.48-11.44,12.48ZM351.62,79.17h9.36v55.42h-9.36v-55.42ZM24.95,104.04l-6.8-2.56c-5.76-2.08-6.24-4.88-6.24-6.72,0-4.24,3.52-6.48,7.84-6.48,3.84,0,7.52,1.52,9.36,7.04l8.16-3.52c-2.48-7.68-8.72-12.48-17.51-12.48-9.6,0-17.43,5.92-17.43,15.43,0,4.56,1.84,11.52,12.96,15.27l6.8,2.4c4.64,1.68,6.96,4.08,6.96,7.2,0,4.4-4,6.88-9.44,6.88-5.76,0-9.76-3.36-10.88-8l-8.72,2c1.44,8.72,9.6,14.79,19.83,14.79s18.79-5.6,18.79-16.07c-.24-5.2-3.44-11.92-13.67-15.19Z"/><path class="cls-1" d="M424.32,0h7.92v7.92h-7.92V0Z"/><path class="cls-1" d="M432.23,7.92h7.92v7.92h-7.92v-7.92Z"/><path class="cls-1" d="M424.32,15.83h7.92v7.92h-7.92v-7.92Z"/><path class="cls-1" d="M424.32,31.67h7.92v7.92h-7.92v-7.92Z"/><path class="cls-1" d="M424.32,39.58h7.92v7.92h-7.92v-7.92Z"/><path class="cls-1" d="M432.23,39.58h7.92v7.92h-7.92v-7.92Z"/><path class="cls-1" d="M424.32,47.5h7.92v7.92h-7.92v-7.92Z"/><path class="cls-1" d="M432.23,47.5h7.92v7.92h-7.92v-7.92Z"/><path class="cls-1" d="M424.32,55.42h7.92v7.92h-7.92v-7.92Z"/><path class="cls-1" d="M432.23,55.42h7.92v7.92h-7.92v-7.92Z"/><path class="cls-1" d="M424.32,63.34h7.92v7.92h-7.92v-7.92Z"/><path class="cls-1" d="M432.23,63.34h7.92v7.92h-7.92v-7.92Z"/><path class="cls-1" d="M424.32,71.25h7.92v7.92h-7.92v-7.92Z"/><path class="cls-1" d="M432.23,71.25h7.92v7.92h-7.92v-7.92Z"/><path class="cls-1" d="M424.32,79.17h7.92v7.92h-7.92v-7.92Z"/><path class="cls-1" d="M432.23,79.17h7.92v7.92h-7.92v-7.92Z"/><path class="cls-1" d="M408.48,79.17h7.92v7.92h-7.92v-7.92Z"/><path class="cls-1" d="M384.73,95h7.92v7.92h-7.92v-7.92ZM416.4,79.17h7.92v7.92h-7.92v-7.92Z"/><path class="cls-1" d="M400.57,79.17h7.92v7.92h-7.92v-7.92Z"/><path class="cls-1" d="M392.65,87.09h7.92v7.92h-7.92v-7.92Z"/><path class="cls-1" d="M463.9,87.09h7.92v7.92h-7.92v-7.92Z"/><path class="cls-1" d="M384.73,102.92h7.92v7.92h-7.92v-7.92Z"/><path class="cls-1" d="M384.73,110.84h7.92v7.92h-7.92v-7.92Z"/><path class="cls-1" d="M384.73,118.75h7.92v7.92h-7.92v-7.92Z"/><path class="cls-1" d="M392.65,126.75h7.92v7.92h-7.92v-7.92Z"/><path class="cls-1" d="M471.82,95h7.92v7.92h-7.92v-7.92Z"/><path class="cls-1" d="M471.82,102.92h7.92v7.92h-7.92v-7.92Z"/><path class="cls-1" d="M471.82,110.84h7.92v7.92h-7.92v-7.92Z"/><path class="cls-1" d="M471.82,118.75h7.92v7.92h-7.92v-7.92Z"/><path class="cls-1" d="M463.9,126.75h7.92v7.92h-7.92v-7.92Z"/><path class="cls-1" d="M448.07,79.17h7.92v7.92h-7.92v-7.92Z"/><path class="cls-1" d="M455.98,79.17h7.92v7.92h-7.92v-7.92Z"/><path class="cls-1" d="M440.15,79.17h7.92v7.92h-7.92v-7.92Z"/><path class="cls-1" d="M424.32,87.09h7.92v7.92h-7.92v-7.92Z"/><path class="cls-1" d="M432.23,87.09h7.92v7.92h-7.92v-7.92Z"/><path class="cls-1" d="M408.48,87.09h7.92v7.92h-7.92v-7.92Z"/><path class="cls-1" d="M416.4,87.09h7.92v7.92h-7.92v-7.92Z"/><path class="cls-1" d="M448.07,87.09h7.92v7.92h-7.92v-7.92Z"/><path class="cls-1" d="M440.15,87.09h7.92v7.92h-7.92v-7.92Z"/><path class="cls-1" d="M424.32,95h7.92v7.92h-7.92v-7.92Z"/><path class="cls-1" d="M432.23,95h7.92v7.92h-7.92v-7.92Z"/><path class="cls-1" d="M408.48,95h7.92v7.92h-7.92v-7.92Z"/><path class="cls-1" d="M416.4,95h7.92v7.92h-7.92v-7.92Z"/><path class="cls-1" d="M448.07,95h7.92v7.92h-7.92v-7.92Z"/><path class="cls-1" d="M440.15,95h7.92v7.92h-7.92v-7.92Z"/><path class="cls-1" d="M424.32,102.92h7.92v7.92h-7.92v-7.92Z"/><path class="cls-1" d="M432.23,102.92h7.92v7.92h-7.92v-7.92Z"/><path class="cls-1" d="M408.48,102.92h7.92v7.92h-7.92v-7.92Z"/><path class="cls-1" d="M416.4,102.92h7.92v7.92h-7.92v-7.92Z"/><path class="cls-1" d="M448.07,102.92h7.92v7.92h-7.92v-7.92Z"/><path class="cls-1" d="M440.15,102.92h7.92v7.92h-7.92v-7.92Z"/><path class="cls-1" d="M424.32,110.84h7.92v7.92h-7.92v-7.92Z"/><path class="cls-1" d="M432.23,110.84h7.92v7.92h-7.92v-7.92Z"/><path class="cls-1" d="M408.48,110.84h7.92v7.92h-7.92v-7.92Z"/><path class="cls-1" d="M416.4,110.84h7.92v7.92h-7.92v-7.92Z"/><path class="cls-1" d="M448.07,110.84h7.92v7.92h-7.92v-7.92Z"/><path class="cls-1" d="M440.15,110.84h7.92v7.92h-7.92v-7.92Z"/><path class="cls-1" d="M424.32,118.75h7.92v7.92h-7.92v-7.92Z"/><path class="cls-1" d="M432.23,118.75h7.92v7.92h-7.92v-7.92Z"/><path class="cls-1" d="M408.48,118.75h7.92v7.92h-7.92v-7.92Z"/><path class="cls-1" d="M416.4,118.75h7.92v7.92h-7.92v-7.92Z"/><path class="cls-1" d="M448.07,118.75h7.92v7.92h-7.92v-7.92Z"/><path class="cls-1" d="M440.15,118.75h7.92v7.92h-7.92v-7.92Z"/><path class="cls-1" d="M424.32,126.75h7.92v7.92h-7.92v-7.92Z"/><path class="cls-1" d="M432.23,126.75h7.92v7.92h-7.92v-7.92Z"/><path class="cls-1" d="M408.48,126.75h7.92v7.92h-7.92v-7.92Z"/><path class="cls-1" d="M416.4,126.75h7.92v7.92h-7.92v-7.92Z"/><path class="cls-1" d="M448.07,126.75h7.92v7.92h-7.92v-7.92Z"/><path class="cls-1" d="M440.15,126.75h7.92v7.92h-7.92v-7.92Z"/><path class="cls-1" d="M424.32,134.59h7.92v7.92h-7.92v-7.92Z"/><path class="cls-1" d="M432.23,134.59h7.92v7.92h-7.92v-7.92Z"/><path class="cls-1" d="M408.48,134.59h7.92v7.92h-7.92v-7.92Z"/><path class="cls-1" d="M408.48,142.51h7.92v7.92h-7.92v-7.92Z"/><path class="cls-1" d="M408.48,150.42h7.92v7.92h-7.92v-7.92Z"/><path class="cls-1" d="M408.48,158.34h7.92v7.92h-7.92v-7.92Z"/><path class="cls-1" d="M408.48,166.34h7.92v7.92h-7.92v-7.92Z"/><path class="cls-1" d="M408.48,174.25h7.92v7.92h-7.92v-7.92Z"/><path class="cls-1" d="M408.48,182.17h7.92v7.92h-7.92v-7.92Z"/><path class="cls-1" d="M408.48,190.01h7.92v7.92h-7.92v-7.92Z"/><path class="cls-1" d="M400.57,190.01h7.92v7.92h-7.92v-7.92Z"/><path class="cls-1" d="M448.07,142.51h7.92v7.92h-7.92v-7.92Z"/><path class="cls-1" d="M448.07,150.42h7.92v7.92h-7.92v-7.92Z"/><path class="cls-1" d="M448.07,158.34h7.92v7.92h-7.92v-7.92Z"/><path class="cls-1" d="M448.07,166.34h7.92v7.92h-7.92v-7.92Z"/><path class="cls-1" d="M448.07,174.25h7.92v7.92h-7.92v-7.92Z"/><path class="cls-1" d="M448.07,182.17h7.92v7.92h-7.92v-7.92Z"/><path class="cls-1" d="M448.07,190.01h7.92v7.92h-7.92v-7.92Z"/><path class="cls-1" d="M455.98,190.01h7.92v7.92h-7.92v-7.92ZM416.4,134.59h7.92v7.92h-7.92v-7.92Z"/><path class="cls-1" d="M448.07,134.59h7.92v7.92h-7.92v-7.92Z"/><path class="cls-1" d="M440.15,134.59h7.92v7.92h-7.92v-7.92ZM408.48,31.67h7.92v7.92h-7.92v-7.92Z"/><path class="cls-1" d="M448.07,31.67h7.92v7.92h-7.92v-7.92Z"/><path class="cls-1" d="M400.57,23.75h7.92v7.92h-7.92v-7.92Z"/><path class="cls-1" d="M455.98,23.75h7.92v7.92h-7.92v-7.92Z"/><path class="cls-1" d="M369.94,125.15c-2.8,0-5.04,2.24-5.04,5.04h0c0,2.88,2.24,5.12,5.04,5.12s4.96-2.24,4.96-5.12-2.16-5.04-4.96-5.04ZM369.94,134.19c-2.16,0-3.84-1.84-3.84-4.08s1.6-4.08,3.76-4.08,3.68,1.84,3.68,4.08c.08,2.32-1.44,4.08-3.6,4.08Z"/><path class="cls-1" d="M368.18,127.55h2c.64,0,1.12.16,1.44.48.24.24.4.72.4,1.2v.08c0,.8-.4,1.28-.96,1.52l1.12,1.92h-1.2l-.96-1.68h-.64v1.68h-1.12l-.08-5.2h0ZM370.02,130.03c.56,0,.8-.32.8-.8s-.32-.8-.88-.8h-.8v1.6h.88Z"/></g></svg>