<?xml version="1.0" encoding="UTF-8"?>
<svg id="Layer_1" xmlns="http://www.w3.org/2000/svg" version="1.1" viewBox="0 0 2291 1875">
  <!-- Generator: Adobe Illustrator 29.0.1, SVG Export Plug-In . SVG Version: 2.1.0 Build 192)  -->
  <g>
    <path d="M1861.47,1600.87c-7.12-4.31-8.55-9.06-8.55-14.28v-234.58c0-12.82-5.73-17.13-9.06-17.13-5.7,0-25.21,11.43-40.44,18.08-6.65,2.88-14.28,1.9-16.66,3.83-9.02,4.75-1.9,11.4,1.9,13.3,4.31,1.9,7.63,4.31,7.63,15.71v55.67c-3.8-3.8-13.33-10.45-27.14-10.45-18.56,0-55.67,34.7-55.67,107.5,0,30.46,9.06,52.34,14.76,65.68,5.7,13.33,11.91,10.92,21.41,10.92h104.69c7.6.48,14.28-9.97,7.12-14.25ZM1782.97,1584.69c-6.17,0-20.46-16.18-20.46-57.09s10.45-63.78,15.23-63.78c7.6,0,21.41,22.86,21.41,62.83s-10.01,58.04-16.18,58.04Z"/>
    <path d="M1718.75,1600.87c-7.16-4.31-8.58-9.06-8.58-14.28,0-10.01,2.85-160.36-52.82-160.36-17.61,0-20.46,11.43-29.48,16.66v-1.9c0-12.86-5.73-17.13-9.06-17.13-8.55,0-48.04,17.13-57.09,21.88-9.02,4.78-1.9,11.43,1.9,13.33,4.27,1.9,7.63,4.27,7.63,15.71v111.81c0,4.75-1.42,9.5-7.63,13.81-.95-6.21-6.17-12.86-10.92-12.86-5.73,0-7.16-4.75-7.16-11.43,0-6.17,0-9.02-5.7-78.97-5.7-69.95-35.21-68.05-66.63-68.05s-58.04,14.76-58.04,39.05,15.71,26.16,27.61,26.16,21.41-2.85,21.41-18.56-10.01-20.46-10.01-20.46c0,0,4.78-1.42,16.18-1.42s17.61,17.61,17.61,33.31c0,12.82-22.83,13.3-30.94,17.61-29.48,14.72-43.76,38.06-43.76,67.07s17.13,43.76,22.83,43.76h49.49c11.43,0,16.18-6.17,19.98-6.17,3.32,0,5.7,6.17,10.01,6.17h30.9c9.53,0,13.81-1.42,16.18-3.8,1.9,2.37,4.75,3.8,7.63,3.8h59.47c7.6,0,14.28-10.45,7.12-14.72-7.12-4.31-8.55-9.06-8.55-14.28v-109.91c0-4.27,5.7-10.96,11.87-10.96,14.76,0,19.98,105.16,19.98,120.87,0,4.75-1.42,9.97-8.55,14.28-7.12,4.27-.48,14.72,7.12,14.72h53.29c7.16,0,13.81-10.45,6.68-14.72ZM1491.29,1577.06c0,6.21-1.42,14.28-9.97,14.28s-17.13-2.85-17.13-30.9,11.91-40,27.1-40v56.62Z"/>
    <path d="M1410.42,1616.1h-59.47c-7.63,0-14.28-10.48-7.16-14.76,7.16-4.27,8.58-9.53,8.58-14.28v-115.14c-3.8,10.45-9.53,18.56-13.33,18.56-16.66,0-14.28-19.03-21.41-19.03-16.66,0-27.61,28.53-31.89,42.81v72.33c0,5.22,1.42,9.97,8.58,14.28,7.12,4.27.48,14.76-7.16,14.76h-59.47c-7.6,0-14.28-10.48-7.12-14.76,7.12-4.31,8.55-9.53,8.55-14.28v-111.81c0-11.43-3.32-13.81-7.6-15.71-3.8-1.9-10.96-8.55-1.9-13.33,9.02-4.75,48.51-21.88,57.09-21.88,3.32,0,9.02,4.27,9.02,17.13v13.33c18.56-5.22,13.33-29.51,46.65-29.51,9.97,0,16.18,3.32,19.98,8.58v-53.77c0-11.43-3.32-13.81-7.63-15.71-3.8-1.9-10.92-8.58-1.9-13.33,9.06-4.75,48.54-21.88,57.09-21.88,3.36,0,9.06,4.27,9.06,17.13v240.76c0,5.22,1.42,9.97,8.55,14.28,7.16,4.27.95,14.72-7.12,15.23Z"/>
    <path d="M1198.7,1558.98c0,14.76-7.16,14.28-14.28,14.28-5.22,0-21.41.95-32.84-26.63-.48-3.32,0-11.91,10.01-14.28,0,0,48.51-19.03,54.21-21.88,5.73-2.85,6.21-12.86,6.21-20.46s-11.91-67.1-58.04-67.1-63.78,49.49-63.78,103.26,25.24,94.68,71.38,94.68,52.82-29.04,52.82-47.12c.95-21.41-25.68-26.63-25.68-14.76ZM1143.03,1509.52c-7.16-54.72,4.75-60.42,10.92-60.42s20.46,19.98,20.46,39.01-16.18,24.73-23.78,24.73c-3.32,0-7.12-.48-7.6-3.32Z"/>
    <path d="M1042.62,1421.48c-15.23,0-12.86,6.65-23.78,10.01v-90.41c0-12.86-5.7-17.13-9.06-17.13-8.55,0-44.24,17.13-53.74,21.88-9.06,4.75-1.93,14.76,1.9,17.13,4.27,1.9,4.27,4.27,4.27,15.71v211.24c0,6.17.47,10.48.95,14.28-.47-.95-1.42-1.9-2.37-2.85-7.16-4.27-8.58-9.06-8.58-14.28,0-10.01,2.85-160.36-52.82-160.36-20.46,0-21.41,15.23-33.75,18.56-5.26-11.4-15.23-20.46-31.89-20.46-27.61,0-24.26,16.18-38.06,19.51v-2.85c0-12.86-5.7-17.13-9.06-17.13-8.55,0-48.04,17.13-57.09,21.88-9.02,4.78-1.9,11.43,1.9,13.33,4.31,1.9,7.63,4.27,7.63,15.71v111.81c0,4.75-1.42,10.01-8.58,14.28-7.12,4.27-.47,14.76,7.16,14.76h59.47c7.6,0,14.28-10.48,7.12-14.76-7.12-4.27-8.55-9.06-8.55-14.28v-105.64c0-10.92,8.07-18.08,14.28-18.08s11.4,4.31,11.4,17.13v106.59c0,4.75-1.43,10.01-8.55,14.28-7.16,4.27-.47,14.76,7.12,14.76h53.29c7.6,0,14.28-10.48,7.12-14.76-7.12-4.27-8.55-9.06-8.55-14.28v-113.71c0-3.8,5.22-7.16,10.01-7.16,14.72,0,19.98,105.16,19.98,120.87,0,4.75-1.42,10.01-8.58,14.28-7.12,4.27-.47,14.76,7.16,14.76h53.26c5.26,0,10.01-4.78,10.01-9.53,2.37,10.48,7.6,9.53,10.45,9.53,4.31,0,8.11,2.37,20.02-16.66,1.9-3.36,7.12-1.43,13.3,5.7,6.21,7.12,10.01,15.71,36.64,15.71s55.67-4.27,55.67-100.89c0-77.55-41.39-98.48-57.09-98.48ZM1034.07,1572.78c-14.28,0-16.18-43.29-16.18-58.04s4.75-63.74,17.61-63.74,18.56,42.34,18.56,63.74-5.73,58.04-19.98,58.04Z"/>
    <path d="M716.24,1616.1h-59.5c-4.75,0-9.02-3.83-9.97-7.63-1.42,4.27-9.06,7.63-19.51,7.63h-51.87c-17.13,0-26.16-8.58-15.71-16.18,10.48-7.63,9.06-11.43,9.06-20.46v-200.79c0-10.48.95-19.03-4.78-19.03-13.77,0-21.88,26.63-29.48,45.19-7.63,18.56-33.31,8.58-30.46-4.27,2.85-12.86,8.58-48.54,11.43-61.37,2.85-12.86,8.07-21.44,12.82-21.44s13.33,7.63,13.33,7.63l59.94.95,59.03-1.42s8.55-7.63,13.3-7.63c5.26,0,10.01,8.58,12.86,21.44,2.85,12.82,8.55,48.51,11.43,61.37,2.85,12.86-22.86,22.83-30.46,4.27-7.6-18.56-15.23-45.19-29.51-45.19-5.22,0-4.75,8.07-4.75,19.03v200.79c0,9.02-1.42,12.82,9.06,20.46,2.37,1.42,3.8,3.32,4.27,4.75.47-1.42,1.42-2.37,2.85-3.32,7.12-4.31,8.55-9.53,8.55-14.28v-111.81c0-11.43-3.32-13.81-7.6-15.71-3.8-1.9-10.96-8.55-1.9-13.33,9.02-4.75,48.54-21.88,57.09-21.88,3.32,0,9.06,4.27,9.06,17.13v145.6c0,5.22,1.42,9.97,8.55,14.28,7.12,4.27.47,14.72-7.12,15.23Z"/>
  </g>
  <g>
    <path d="M1158.17,1167.13c152.66,26.72,247.17,34.57,297.57,36.14-78.8,50.4-171.63,78.8-272.43,78.8-144.8,0-277.03-59.83-369.97-157.48,50.4,1.57,159.06,9.43,344.83,42.54Z"/>
    <path d="M1403.77,1085.19c62.97,0,151.09-11,198.34-18.86-34.57,47.26-75.54,88.11-122.8,121.23-47.26,1.57-143.23-3.14-316.43-33.11-209.34-36.14-321.14-40.86-360.54-40.86-11-12.57-22-25.26-31.43-39.4,29.86-3.14,106.97-12.57,203.06-11,122.8,1.57,347.97,20.43,429.8,22Z"/>
    <path d="M1679.22,636.54l-275.46,70.83,29.86-56.69c64.54-9.43,148.06-31.43,225.17-72.4-6.29-14.14-12.57-29.86-20.43-44.11-66.11,33.11-125.94,48.83-173.2,55.11l42.54-81.83,110.12-7.86c-9.43-15.72-20.43-31.54-31.43-45.69h-127.51l50.4-80.26c-11.11-9.43-22.11-17.4-33.11-25.26l-102.37,143.34-29.86-59.83,4.71-20.54,97.66-83.4c-11.11-6.29-22.11-12.57-33.11-18.86l-103.94,55.11-53.43-105.51c-15.83-1.57-31.54-3.14-45.69-4.71l56.69,144.8-15.83,14.14-83.4-160.51h-14.14l-64.54,135.37-66.11-110.23c-22.11,7.86-42.54,15.71-62.97,25.26l-3.14,89.69-94.51-26.72c-18.86,15.72-37.83,33-55.11,51.86l114.94,140.2-31.43,1.57-102.37-119.66c-12.57,15.72-23.57,31.43-34.68,47.26l64.54,77.11-108.54,7.86c-23.68,59.83-37.83,124.37-37.83,193.63,0,111.8,36.26,214.17,96.08,299.14,22-1.57,103.83-12.57,206.2-12.57,122.8,0,346.4,17.29,429.8,17.29,69.26,0,170.06-15.71,210.91-23.57,51.97-80.37,81.94-174.77,81.94-277.14,0-45.69-6.29-91.26-17.4-132.23ZM1424.2,512.17l28.4-1.57-48.83,80.26c-11,0-20.43-1.57-28.4-1.57l48.83-77.11ZM1362.8,656.97l-40.86,69.37-39.4,9.43,48.83-77.23c7.86,0,18.86,0,31.43-1.57ZM1313.97,518.45l15.83,37.83-85.08,116.51-3.14-103.94,72.4-50.4ZM1082.63,549.99l12.57,89.69-36.26-36.14,23.68-53.54ZM1030.66,416.08l-22.11-3.14-1.57-39.29,23.69,42.43ZM1055.8,479.05l-39.29,67.8-4.72-81.94,44,14.14ZM873.17,420.91l77.23,23.57,4.71,56.69-81.94-80.26ZM898.43,609.82l73.97-3.14,25.14,22-72.4,58.26-69.26-25.26,42.54-51.86ZM816.49,611.39l-20.43,26.72-62.97-23.57,83.4-3.14ZM740.94,664.94l26.83,12.57-36.26,48.83c1.57-20.54,4.71-40.97,9.43-61.4ZM1139.31,981.36c-125.94-18.97-251.88-36.26-376.26-39.4-20.54-51.97-33.11-110.23-33.11-170.06v-6.29l25.14,1.57h17.4l50.29-62.97,58.26,28.4-28.29,39.29,66.11,3.14,125.94-103.83,31.54,34.57-125.94,70.83,105.4,4.71,66.11-25.14,23.68,26.72-6.29,198.45ZM1186.46,649.11l-23.57-1.57-7.86-34.57,31.43-14.26v50.4ZM1189.6,526.31l-44,31.54-23.68-97.66,44.11-102.26,39.4,81.83-15.83,86.54ZM1578.54,1026.94c-108.66-3.14-218.88-15.72-329.11-31.43-25.14-99.23-14.14-198.34-12.57-198.34l168.48-42.54,23.57,34.69,44.11-1.57-11-47.26,66.11-15.83c11,15.83,40.97,55.11,72.4,72.51l34.68-15.83s-33.11-39.29-42.54-72.4l56.69-14.14c3.14,23.57,6.29,48.83,6.29,75.54,0,94.51-28.29,182.63-77.11,256.6Z"/>
  </g>
</svg>