<?xml version="1.0" encoding="UTF-8"?>
<svg id="Capa_1" xmlns="http://www.w3.org/2000/svg" version="1.1" viewBox="0 0 2500 1382">
  <!-- Generator: Adobe Illustrator 29.0.1, SVG Export Plug-In . SVG Version: 2.1.0 Build 192)  -->
  <path d="M981.7,401.3c2.3-.4,4.6-.8,6.8-1.1-2.2.4-4.5.7-6.8,1.1Z"/>
  <path d="M1267.3,1033.8c-148.7-.2-288.1-37.4-404-58.3h0c115.9,20.9,255.3,58.1,404,58.3Z"/>
  <path d="M1003.4,397.7c-4.4.8-9.4,1.6-14.9,2.5,5.5-.9,10.5-1.8,14.9-2.5h0Z"/>
  <path d="M894.4,275.3c-23.6,3.9-47,6.5-69.3,8.3l38.1,122.9s0,0,0,0l-38.1-122.8c23.2-1.7,46.3-4.4,69.2-8.3Z"/>
  <path d="M882.2,1104.5c-18.6-2.8-37.4-4.8-56.2-6.1,18.2,1.3,37.1,3.3,56.2,6.1Z"/>
  <path d="M1586.8,232.6c132.2,44.6,232.1,112.4,299.8,179.7-67.7-67.3-167.5-135.1-299.8-179.8-240.3-80.6-504.6-1.9-641.7,32.3-2.5.6-5,1.2-7.6,1.8,2.5-.6,5.1-1.2,7.6-1.8,137.1-34.2,401.5-113,641.7-32.3Z"/>
  <path d="M970.9,403.1c2.5-.4,4.9-.8,7.3-1.2-2.4.4-4.8.8-7.3,1.2Z"/>
  <path d="M2463.8,502.7l-4.7-6.6-5.8-5.8-6.6-4.7-14.3-5.5-13.7-1.7h-292.6C2002.8,218.1,1658.6,29.7,1255.5,29.7h0c-403.2,0-747.1,188.4-870.5,449.2h-90.5l-13.7,2.5c-16.4,4.9-29.3,11.8-43.1,21.9-9.2,7.3-17.4,15.7-24.7,24.9L41.1,804.7c-3.6,6.3-6.3,12.1-8.8,18.6-1.9,7.7-2.8,13.7-2.8,21.4l3.1,14.8,3.5,7.4,4.7,6.6,5.8,5.5,6.6,4.7,14.3,5.5,14,1.7h298.1c118.2,267.1,466.8,461.5,876,461.5s758-194.4,876.2-461.5h67.5c11.4-.6,22.6-3,33.2-7.2l12.6-6c17-9.9,29.9-20.9,42-36.5l172.2-276.5c3.6-6.1,6.1-11.8,8.5-18.6,1.9-7.4,2.8-13.4,2.8-21.4l-3-14.8-3.6-7.1ZM1255.5,59c385.3,0,714.7,175.5,838.1,419.6h-150.1s0,0,0,0l-249.9.2s0,0,0,0h-690.2s-111.1,0-111.1,0h0s-474.7,0-474.7,0C540.8,234.5,870.4,59,1255.5,59ZM1255.5,1323c-391.4,0-725.4-181.6-843.8-432.2h591.8v93.5s0,0,0,0v-93.5h948.5c-58.9,88.6-180.4,196.3-365.3,258.3-76.9,25.9-156.3,35.5-233.3,35.3,76.9.1,156.4-9.4,233.3-35.3,184.8-62,306.3-169.8,365.3-258.3h147.5c-118.2,250.6-452.2,432.2-844.1,432.2ZM2433.6,549.6l-167.8,270.1c-14.3,22.7-44.4,41.7-67.5,41.7H82c-22.8,0-29.9-18.9-15.6-41.7l167.8-270.1c14.2-22.8,44.4-41.4,67.5-41.4h2116.3c22.8,0,29.9,18.6,15.6,41.4Z"/>
  <path d="M892.4,416.3h0c3.5-.7,7.4-1.4,11.6-2.2-4.2.8-8.1,1.5-11.6,2.2Z"/>
  <path d="M932.3,409.3c2.5-.4,5.1-.8,7.7-1.3-2.6.4-5.2.8-7.7,1.3Z"/>
  <path d="M951.7,406.2c2.6-.4,5.2-.8,7.8-1.3-2.6.4-5.2.8-7.8,1.3Z"/>
  <path d="M914,412.4c2.3-.4,4.7-.8,7.1-1.2-2.4.4-4.8.8-7.1,1.2Z"/>
  <path d="M1886.6,412.3c-67.7-67.3-167.6-135.1-299.8-179.7-240.2-80.6-504.6-1.9-641.7,32.3-2.5.6-5.1,1.2-7.6,1.8-14.4,3.4-28.7,6.2-43,8.6-22.9,3.9-46,6.6-69.2,8.3l38.1,122.8c161.2-29.1,368-90,581.9-38.4,144,34.3,214.2,76.6,248.4,110.8h0s0,0,0,0l249.9-.2s0,0,0,0h0c-15.4-21.5-34.4-43.8-56.9-66.3ZM1369.3,251.2c-18.4,8.2-37.6,9.3-55.9,0-11.3-5.8-9.3-19.4,3.2-19.2l47.7,1.9c13.2.8,17,11.8,5,17.3ZM1491.8,269.6c-16.4,1.9-31.8.8-45-6.3-12.6-7.1-17.2-26.6-4.4-24.7h0l59.8,9.1c13.2,1.9,8,19.7-10.4,21.9ZM1626,312.4c-23.3.2-50.7-7.4-65-25.8-12.1-15.6-2.7-25.2,9.6-18.7h0l61.5,24.2c15.4,6.1,11.5,19.7-6.1,20.3ZM1743.1,383.7c-21.1-7.2-44.1-23.3-55.4-41.4-9-14.8,2.2-27.7,15.6-18.6l60.6,40.3c18.1,12.3-2.2,26-20.9,19.7Z"/>
  <path d="M2140.4,623.9c-16.4-13.2-41.4-11.8-41.4-11.8-73.3,0-117.1,47.4-124,72.7-6.8,25.2,21.9,31.5,53.7,40.1,31.8,8.5,38.7,13.4,35.1,19.2-3.6,5.8-10.4,15.6-40.6,15.6s-24.4-26.6-24.4-26.6h-54.9l-38.1,63.9h57.9l7.9-12.6s13.4,14.3,51.6,14.3c62.5,0,100.1-23.3,122.3-56.2,22.5-32.9-16.7-52.9-43.3-58.5-26.3-5.2-40.9-10.4-39.5-15.9,1.4-5.5,9.1-13.4,34-13.4s24.4,20,24.4,20h46.9l38.1-60.3h-57.6l-8.2,9.6Z"/>
  <path d="M1445.2,368c-213.9-51.6-420.7,9.3-581.9,38.4h0c161.3-29,368-89.9,582-38.4,143.8,34.3,214.1,76.5,248.4,110.8h0c-34.2-34.2-104.5-76.5-248.4-110.8Z"/>
  <polygon points="814 616.5 783.2 665.1 813.4 665.1 764 745.4 734.2 745.4 704.8 791.8 843.3 791.8 869.3 747.3 839.2 747.3 918.5 616.5 814 616.5"/>
  <path d="M1638.9,595.9c29.6,0,53.4-10.6,53.4-23.8s-23.8-23.6-53.4-23.6-53.2,10.7-53.2,23.6,23.9,23.8,53.2,23.8Z"/>
  <path d="M1886.6,412.3c22.5,22.4,41.5,44.8,56.9,66.3h0c-15.4-21.5-34.4-43.8-57-66.3Z"/>
  <path d="M885.3,595.9c29.3,0,53.2-10.6,53.2-23.8s-23.9-23.6-53.2-23.6-53.2,10.7-53.2,23.6c0,13.1,23.9,23.8,53.2,23.8Z"/>
  <path d="M605.8,560.7h-183.2l-30.2,50.4h47.1l-78.4,130.2h-49.1l-30.9,50.4h263.8c93.8,0,148.9-54.8,172.2-121.4,17.3-49.9-9.1-109.7-111.3-109.7ZM614,675.7c-23.9,35.9-51.6,65.5-98.7,65.5h-55.4l78.4-130.2h40c48,0,50.5,42.5,35.7,64.7Z"/>
  <polygon points="1567.9 616.5 1537.1 665.1 1567 665.1 1518 745.4 1487.7 745.4 1458.4 791.8 1597.2 791.8 1623 747.3 1593 747.3 1672.3 616.5 1567.9 616.5"/>
  <path d="M1031.1,762.1c-1.9,0-28.8,6.9-28.8-31.8s48.8-71.6,70.5-71c21.9.2,30.8,26.6,30.8,26.6h36.8l35.9-71.5h-39.5l-6.6,12.3c-21.9-17.6-49.6-15.4-49.6-15.4-94.4,0-129.2,46.6-146.2,81.4s-19.5,113,78.7,113,109.4-72.7,109.4-72.7h-38.4c-26.3,31.8-50.7,29.1-52.9,29.1Z"/>
  <path d="M1894.2,712.2c5.8-15.1,49.6-104.5-61.7-104.5s-149.7,85.5-151.9,112.4c-2.2,26.9,6.6,78.4,89.9,78.4s105.8-61.2,105.8-61.2h-52.4s-7.6,18.1-47.1,18.1-20.3-43.3-20.3-43.3h137.6ZM1822.3,648.6c12.6.3,28.5,9.8,14.8,34.5h-68s18.4-35.4,53.2-34.5Z"/>
  <path d="M894.4,275.3c14.3-2.3,28.7-5.2,43-8.6-14.3,3.3-28.6,6.1-43,8.6Z"/>
  <polygon points="1480.9 658.2 1507.5 613 1446.4 613 1313.6 674.1 1384.9 553.2 1282.1 553.2 1251.6 605.8 1282.1 605.8 1201.2 739.1 1169.7 739.1 1137.3 791.8 1247 791.8 1285.1 720.7 1332.6 791.8 1411.8 791.8 1442.5 738.9 1397.3 738.9 1366.6 697.4 1448 658.2 1480.9 658.2"/>
  <path d="M988.5,400.2c-2.2.4-4.5.7-6.8,1.1-1.2.2-2.3.4-3.5.6-2.4.4-4.8.8-7.3,1.2-3.7.6-7.5,1.2-11.4,1.8-2.6.4-5.2.8-7.8,1.3-3.9.6-7.8,1.3-11.7,1.9-2.6.4-5.2.8-7.7,1.3-3.8.6-7.6,1.3-11.2,1.9-2.4.4-4.8.8-7.1,1.2-3.5.6-6.8,1.2-10,1.8-4.2.8-8.1,1.5-11.6,2.2v62.5h0s111.1,0,111.1,0h0v-81.1c-4.4.8-9.4,1.6-14.9,2.5Z"/>
  <path d="M1445.3,1013.9c-60.2,14.4-119.8,20-178,19.9-148.7-.2-288.1-37.4-404-58.3l-38.1,122.9c.2,0,.5,0,.7,0,18.8,1.3,37.6,3.3,56.2,6.1,20.8,3,41.9,7,62.9,12.3,93.2,23.5,245.2,67.4,408.4,67.7,76.9.1,156.3-9.4,233.3-35.3,184.9-62,306.3-169.8,365.3-258.3h-247c-29,35.9-97.9,84.5-259.7,123.1ZM1364.3,1147.8l-47.7,2.2h0c-12.6.3-14.5-13.4-3.2-19.2,18.4-9.3,37.5-8.5,55.9,0,12.1,5.5,8.2,16.4-5,17ZM1502.3,1134l-59.8,9.3c-12.8,1.9-8.2-17.5,4.4-24.6,13.2-7.4,28.5-8.3,45-6.3,18.4,2.2,23.6,19.7,10.4,21.6ZM1632,1089.9l-61.5,23.9h0c-12.3,6.6-21.6-2.8-9.6-18.4,14.3-18.4,41.7-26.1,65-25.8,17.6.3,21.4,14.3,6.1,20.3ZM1743.1,998.3c18.6-6.2,39,7.4,20.9,19.5l-60.6,40.6c-13.4,9-24.7-3.8-15.6-18.6,11.3-18.1,34.3-34.3,55.4-41.4Z"/>
  <path d="M1445.2,1013.9c-60.2,14.4-119.7,20-177.9,19.9,58.2,0,117.8-5.5,178-19.9,161.8-38.6,230.7-87.2,259.7-123.1h0c-29,35.9-97.9,84.4-259.7,123.1Z"/>
  <path d="M882.2,1104.5c21.1,3.1,42.1,7.2,62.8,12.3,93.2,23.5,245.2,67.4,408.5,67.7-163.2-.3-315.2-44.2-408.4-67.7-21-5.3-42.1-9.3-62.9-12.3Z"/>
  <path d="M863.3,975.5s0,0,0,0l-38.1,122.9c.3,0,.5,0,.8,0-.2,0-.5,0-.7,0l38.1-122.9Z"/>
  <path d="M662.3,281.1l40.3,137.4c36.5,4.4,77.9,1.1,123.7-5.8l-39.2-127.3c-72.1,2.2-124.8-4.4-124.8-4.4Z"/>
  <path d="M1003.4,984.3v-93.5h-111v74.8c27.7,5.5,83,13.4,111,18.6Z"/>
  <path d="M1003.4,984.3h0c-28-5.2-83.3-13.2-111-18.6v-74.8h0v74.8c27.7,5.5,83.1,13.4,111.1,18.6Z"/>
  <polygon points="826.3 969.2 826.3 969.2 826.3 969.2 826.3 969.2"/>
  <path d="M702.6,963.4l-40.3,137.4s52.6-6.8,124.8-4.4l39.2-127.2c-45.8-6.8-87.2-10.1-123.7-5.8Z"/>
  <path d="M2193.9,951.4h0c-20.9,0-37.9,17-37.8,37.9,0,20.9,17,37.9,37.9,37.8s37.9-17,37.8-37.9c0-20.8-17-37.8-37.9-37.8ZM2208.5,1011.5l-.8-5.8c-1.1-5.8,1.7-14.3-8.2-14.3h-15.4v20h-6.1,0v-46.9h21.1c7.1,0,14.3,1.4,14.8,12.1.2,6.1-1.7,8.2-6.1,11.5,4.7,3.3,4.9,3.8,5.8,12.1.2,6.3-.6,7.2,2.2,11.3h-7.4Z"/>
  <path d="M2199.1,969.7h-15.1v16.2h15.1c4.1,0,7.9-1.1,8.8-7.1.8-8-4.9-9.1-8.8-9.1Z"/>
</svg>