<?xml version="1.0" encoding="UTF-8"?>
<svg id="b" data-name="Capa_2" xmlns="http://www.w3.org/2000/svg" width="218.089mm" height="34.792mm" viewBox="0 0 618.204 98.622">
  <g id="c" data-name="Capa_1">
    <g>
      <path d="M492.109,66.923c-.588,1.32-1.688,2.972-3.302,4.953-1.617,1.98-3.522,3.962-5.724,5.943s-5.211,3.67-9.025,5.063c-3.818,1.396-8.001,2.091-12.548,2.091-8.806,0-16.366-2.642-22.675-7.925-6.312-5.283-10.202-12.252-11.667-20.913,0,0-.512-2.566-.512-6.824,0-4.121.512-6.604.512-6.604,1.465-8.657,5.394-15.664,11.777-21.022,6.384-5.355,13.903-8.035,22.564-8.035,8.805,0,16.362,2.68,22.674,8.035,6.309,5.358,10.198,12.365,11.667,21.022,8.365,0,13.84.01,13.84.01,0-8.71-4.522-19.785-13.62-28.958C486.97,4.589,475.451,0,461.51,0c-13.648,0-25.282,4.771-34.893,14.309-9.613,9.542-14.419,21.209-14.419,35.002,0,13.648,4.768,25.281,14.31,34.892,9.538,9.614,21.205,14.419,35.002,14.419,7.044,0,13.462-1.211,19.262-3.632,5.796-2.422,10.271-5.136,13.429-8.146,3.153-3.006,5.943-6.456,8.365-10.347,2.421-3.887,3.924-6.604,4.513-8.145.584-1.541,1.024-2.752,1.32-3.633h-15.409l-.881,2.202Z" fill="#1d1d1b"/>
      <path d="M163.862,44.247c0,7.925-4.183,11.888-12.548,11.888h-70.003c1.465,8.661,5.355,15.63,11.667,20.913,6.308,5.283,13.869,7.925,22.674,7.925,4.547,0,8.73-.694,12.548-2.091,3.814-1.394,6.824-3.082,9.026-5.063,2.201-1.981,4.107-3.963,5.723-5.943,1.613-1.981,2.714-3.633,3.302-4.953l.88-2.202h15.41c-.296.881-.736,2.092-1.321,3.633-.588,1.541-2.091,4.258-4.513,8.145-2.421,3.891-5.211,7.341-8.365,10.347-3.158,3.01-7.632,5.724-13.428,8.146-5.799,2.421-12.218,3.632-19.262,3.632-13.796,0-25.463-4.805-35.002-14.419-9.542-9.61-14.309-21.243-14.309-34.892,0-13.793,4.805-25.46,14.419-35.002C90.37,4.771,102.003,0,115.652,0c13.941,0,25.46,4.588,34.562,13.759,9.098,9.173,13.648,19.337,13.648,30.488ZM81.31,42.706h68.683c-1.469-8.657-5.359-15.664-11.667-21.022-6.312-5.355-13.869-8.035-22.674-8.035-8.661,0-16.18,2.68-22.564,8.035-6.384,5.358-10.312,12.365-11.777,21.022Z" fill="#1d1d1b"/>
      <path d="M186.643,84.202c-9.614-9.61-14.419-21.243-14.419-34.892s4.805-25.278,14.419-34.892c9.61-9.61,21.243-14.419,34.892-14.419s25.278,4.809,34.892,14.419c9.611,9.613,14.419,21.243,14.419,34.892s-4.809,25.281-14.419,34.892c-9.614,9.614-21.243,14.419-34.892,14.419s-25.281-4.805-34.892-14.419ZM196.88,23.774c-6.752,6.752-10.126,15.266-10.126,25.536s3.375,18.787,10.126,25.536c6.749,6.752,14.969,10.126,24.655,10.126s17.903-3.374,24.655-10.126c6.749-6.749,10.126-15.262,10.126-25.536s-3.378-18.784-10.126-25.536c-6.752-6.748-14.969-10.126-24.655-10.126s-17.907,3.378-24.655,10.126Z" fill="#1d1d1b"/>
      <path d="M404.025,44.247c0,7.925-4.183,11.888-12.548,11.888h-70.004c1.465,8.661,5.355,15.63,11.667,20.913,6.309,5.283,13.869,7.925,22.675,7.925,4.547,0,8.729-.694,12.548-2.091,3.814-1.394,6.824-3.082,9.025-5.063s4.106-3.963,5.724-5.943c1.613-1.981,2.714-3.633,3.302-4.953l.881-2.202h15.409c-.296.881-.736,2.092-1.32,3.633-.589,1.541-2.092,4.258-4.513,8.145-2.422,3.891-5.212,7.341-8.365,10.347-3.158,3.01-7.633,5.724-13.429,8.146-5.8,2.421-12.218,3.632-19.262,3.632-13.797,0-25.464-4.805-35.002-14.419-9.542-9.61-14.31-21.243-14.31-34.892,0-13.793,4.806-25.46,14.419-35.002,9.61-9.538,21.244-14.309,34.893-14.309,13.94,0,25.46,4.588,34.562,13.759,9.098,9.173,13.648,19.337,13.648,30.488ZM321.474,42.706h68.683c-1.469-8.657-5.358-15.664-11.667-21.022-6.312-5.355-13.869-8.035-22.674-8.035-8.661,0-16.181,2.68-22.564,8.035-6.384,5.358-10.312,12.365-11.777,21.022Z" fill="#1d1d1b"/>
      <path d="M534.001,84.202c-9.613-9.61-14.419-21.243-14.419-34.892s4.806-25.278,14.419-34.892,21.244-14.419,34.893-14.419,25.277,4.809,34.892,14.419c9.61,9.613,14.419,21.243,14.419,34.892s-4.809,25.281-14.419,34.892-21.243,14.419-34.892,14.419-25.282-4.805-34.893-14.419ZM544.238,23.774c-6.753,6.752-10.127,15.266-10.127,25.536s3.374,18.787,10.127,25.536c6.748,6.752,14.969,10.126,24.655,10.126s17.903-3.374,24.655-10.126c6.748-6.749,10.126-15.262,10.126-25.536s-3.378-18.784-10.126-25.536c-6.752-6.748-14.97-10.126-24.655-10.126s-17.907,3.378-24.655,10.126Z" fill="#1d1d1b"/>
      <path d="M14.529,29.279v67.142H0V29.279C0,19.448,2.642,12.477,7.925,8.366c5.283-4.107,11.812-6.164,19.592-6.164h40.881v13.648H27.517c-8.661,0-12.988,4.479-12.988,13.429Z" fill="#1d1d1b"/>
    </g>
  </g>
</svg>